<svg xmlns="http://www.w3.org/2000/svg" width="17.444" height="19.936" viewBox="0 0 17.444 19.936">
  <path id="Icon_awesome-calendar-alt" data-name="Icon awesome-calendar-alt" d="M0,18.067a1.869,1.869,0,0,0,1.869,1.869H15.575a1.869,1.869,0,0,0,1.869-1.869V7.476H0Zm12.46-7.632a.469.469,0,0,1,.467-.467h1.557a.469.469,0,0,1,.467.467v1.557a.469.469,0,0,1-.467.467H12.927a.469.469,0,0,1-.467-.467Zm0,4.984a.469.469,0,0,1,.467-.467h1.557a.469.469,0,0,1,.467.467v1.557a.469.469,0,0,1-.467.467H12.927a.469.469,0,0,1-.467-.467ZM7.476,10.435a.469.469,0,0,1,.467-.467H9.5a.469.469,0,0,1,.467.467v1.557a.469.469,0,0,1-.467.467H7.943a.469.469,0,0,1-.467-.467Zm0,4.984a.469.469,0,0,1,.467-.467H9.5a.469.469,0,0,1,.467.467v1.557a.469.469,0,0,1-.467.467H7.943a.469.469,0,0,1-.467-.467ZM2.492,10.435a.469.469,0,0,1,.467-.467H4.517a.469.469,0,0,1,.467.467v1.557a.469.469,0,0,1-.467.467H2.959a.469.469,0,0,1-.467-.467Zm0,4.984a.469.469,0,0,1,.467-.467H4.517a.469.469,0,0,1,.467.467v1.557a.469.469,0,0,1-.467.467H2.959a.469.469,0,0,1-.467-.467ZM15.575,2.492H13.706V.623A.625.625,0,0,0,13.083,0H11.837a.625.625,0,0,0-.623.623V2.492H6.23V.623A.625.625,0,0,0,5.607,0H4.361a.625.625,0,0,0-.623.623V2.492H1.869A1.869,1.869,0,0,0,0,4.361V6.23H17.444V4.361A1.869,1.869,0,0,0,15.575,2.492Z" fill="#23c886" opacity="0.7"/>
</svg>
