<svg xmlns="http://www.w3.org/2000/svg" width="57" height="56" viewBox="0 0 57 56">
  <g id="Group_6087" data-name="Group 6087" transform="translate(-1430 -2344)">
    <g id="Group_6073" data-name="Group 6073">
      <g id="Rectangle_85" data-name="Rectangle 85" transform="translate(1430 2344)" fill="#f6f4f9" stroke="#fff" stroke-width="1">
        <rect width="57" height="56" rx="20" stroke="none"/>
        <rect x="0.5" y="0.5" width="56" height="55" rx="19.5" fill="none"/>
      </g>
    </g>
    <g id="Group_6086" data-name="Group 6086" transform="translate(-0.623 3.008)">
      <g id="Group_6085" data-name="Group 6085" transform="translate(1289.402 2168.145)">
        <path id="Path_3609" data-name="Path 3609" d="M169.172,339.026l27.166-13.3c.085.156.169.3.24.443q2.3,4.685,4.594,9.372a2.154,2.154,0,0,1-1.1,3.233l-22.851,11.185a2.148,2.148,0,0,1-3.23-1.1C172.394,345.6,170.795,342.336,169.172,339.026Zm27.766-6.469-6.281,3.078,1.816,3.7,6.279-3.074Z" transform="translate(-16.275 -130.448)"/>
        <path id="Path_3610" data-name="Path 3610" d="M178.69,282.649,151.6,295.912a2.015,2.015,0,0,1,.819-2.984c1.219-.618,2.453-1.206,3.681-1.807q9.751-4.775,19.5-9.55A2.106,2.106,0,0,1,178.69,282.649Z" transform="translate(0 -90.148)"/>
        <path id="Path_3611" data-name="Path 3611" d="M375.881,181.849a12.813,12.813,0,0,1,12.354,8.773,1.237,1.237,0,0,1-.693,1.723,1.213,1.213,0,0,1-1.586-.886,9.888,9.888,0,0,0-2.893-4.5,10.171,10.171,0,0,0-9.64-2.338c-.136.034-.267.084-.4.113a1.2,1.2,0,0,1-1.461-.838,1.171,1.171,0,0,1,.792-1.478A11.328,11.328,0,0,1,375.881,181.849Z" transform="translate(-199.722)"/>
        <path id="Path_3612" data-name="Path 3612" d="M390.43,234.953a7.875,7.875,0,0,1,7.285,5.227,2.131,2.131,0,0,1,.078,1.04,1.121,1.121,0,0,1-1.114.825,1.27,1.27,0,0,1-1.157-.792,9.9,9.9,0,0,0-.9-1.723,5.231,5.231,0,0,0-5.519-1.905,2.179,2.179,0,0,1-.729.1,1.192,1.192,0,0,1-1.054-1.079,1.155,1.155,0,0,1,.832-1.253C388.9,235.2,389.671,235.1,390.43,234.953Z" transform="translate(-214.057 -48.148)"/>
        <path id="Path_3613" data-name="Path 3613" d="M405.625,398.9l1.814,3.7-6.279,3.074-1.816-3.7Z" transform="translate(-224.962 -196.796)" fill="#15cd97"/>
        <path id="Path_3614" data-name="Path 3614" d="M426.8,389.26l1.375,2.828s-25,12.3-27.1,13.329c-.607-1.236-.741-1.618-1.363-2.885Z" transform="translate(-248.123 -196.795)" fill="#15cd97"/>
      </g>
    </g>
  </g>
</svg>
