<svg xmlns="http://www.w3.org/2000/svg" width="174" height="146" viewBox="0 0 174 146">
  <g id="Group_6100" data-name="Group 6100" transform="translate(-153 -8300)">
    <g id="Rectangle_193" data-name="Rectangle 193" transform="translate(153 8300)" fill="#f6f4f9" stroke="#23c886" stroke-width="1">
      <rect width="174" height="146" rx="10" stroke="none"/>
      <rect x="0.5" y="0.5" width="173" height="145" rx="9.5" fill="none"/>
    </g>
    <g id="Group_6099" data-name="Group 6099" transform="translate(4.946 5.438)">
      <rect id="Rectangle_203" data-name="Rectangle 203" width="39" height="69" rx="5" transform="translate(214 8343.909)" fill="#23c886"/>
      <g id="Group_6098" data-name="Group 6098" transform="translate(186.054 8318.563)">
        <path id="Path_3659" data-name="Path 3659" d="M32.943,68.792c-.4-.024-.737-.059-1.067-.059-3.364,0-6.731-.011-10.095,0a4.89,4.89,0,0,0-5.144,5.116c-.013,2.583,0,5.168,0,7.752,0,.293.037.583.075,1.127.719-.713,1.278-1.283,1.855-1.831.867-.827,1.723-.9,2.434-.235.733.691.686,1.622-.178,2.506q-2.244,2.3-4.526,4.559a1.623,1.623,0,0,1-2.585-.04Q11.476,85.452,9.257,83.2c-.885-.9-.959-1.789-.249-2.5s1.615-.656,2.5.24c.546.55,1.01,1.179,1.509,1.773l.35-.209c.015-.35.046-.7.046-1.05,0-2.482,0-4.964,0-7.444a8.149,8.149,0,0,1,8.473-8.491c10.165,0,20.329.024,30.492.018a9.839,9.839,0,0,0,.526-19.671c-.238,0-.475,0-.713.009-1.461.015-2.062-.764-1.811-2.218a26.049,26.049,0,0,0,.563-4.22A16.338,16.338,0,0,0,28.1,24.35c-1.987.865-2.407.7-3.232-1.278A21.316,21.316,0,0,0,3.376,10.02a37.357,37.357,0,0,0-5.157,1.109c-1.127.268-1.954-.062-2.242-.984-.264-.845.211-1.582,1.276-1.978.095-.035.185-.086.282-.117Q10.7,4.087,21.264,12.891a22.452,22.452,0,0,1,5.807,7.536c.293.6.554.737,1.241.513A19.453,19.453,0,0,1,53.637,35.156a16.7,16.7,0,0,1,.306,6.572c-.128.772.04,1.072.926,1.221A12.93,12.93,0,0,1,54.2,68.517a53.974,53.974,0,0,1-5.7.174c-3.705.024-7.411.007-11.116.007h-1.2v1.309q0,12.9,0,25.8c0,5.373-3.419,8.79-8.792,8.79q-12.39,0-24.78,0c-5.3,0-8.746-3.437-8.746-8.735q0-28.757,0-57.514c0-5.248,3.443-8.7,8.671-8.7q12.595-.01,25.189,0a8.044,8.044,0,0,1,8.119,6,10.077,10.077,0,0,1,.323,2.513q.04,10.911.015,21.823a3.836,3.836,0,0,1-.13,1.1,1.543,1.543,0,0,1-2.986-.136A4.586,4.586,0,0,1,33,59.826q.007-10.858.022-21.719c0-3.311-2.013-5.307-5.347-5.307q-12.7-.007-25.391,0a4.908,4.908,0,0,0-5.263,5.29q0,29.014,0,58.026c0,3.316,2.009,5.32,5.331,5.323q12.7,0,25.391,0a4.914,4.914,0,0,0,5.279-5.283Q33.016,83.049,33,69.947C33,69.582,32.963,69.219,32.943,68.792Z" transform="translate(32.243 -6.818)"/>
        <path id="Path_3660" data-name="Path 3660" d="M-4.441,31.178c-.125-1.089-.266-2.125-.361-3.164a23.8,23.8,0,0,1,4.2-15.9,1.635,1.635,0,0,1,1.778-.9c1.162.262,1.463,1.428.849,2.6A44.535,44.535,0,0,0-.9,19.939,20.136,20.136,0,0,0-1.1,31.484a2.847,2.847,0,0,1-.026,1.844,2.107,2.107,0,0,1-1.5.777,13.269,13.269,0,0,0-11.9,10.121A13.132,13.132,0,0,0-2.044,60.3c1.6.015,3.195,0,4.792.009,1.212.009,1.987.64,1.974,1.584s-.781,1.613-2,1.558c-2.772-.121-5.624.051-8.3-.543A16.042,16.042,0,0,1-18,47.137,16.2,16.2,0,0,1-5.629,31.5C-5.241,31.4-4.856,31.29-4.441,31.178Z" transform="translate(18.001 -1.588)"/>
        <path id="Path_3661" data-name="Path 3661" d="M6.141,23.346c-1.019,0-2.04.024-3.056-.007a1.687,1.687,0,0,1-1.8-1.573,1.656,1.656,0,0,1,1.853-1.6q3.007-.023,6.011,0a1.639,1.639,0,0,1,1.8,1.549A1.676,1.676,0,0,1,9.2,23.337C8.179,23.375,7.16,23.344,6.141,23.346Z" transform="translate(41.15 9.19)"/>
        <path id="Path_3662" data-name="Path 3662" d="M-8.926,40.873a1.726,1.726,0,0,1-1.7,1.659,1.488,1.488,0,0,1-1.439-1.622,1.548,1.548,0,0,1,1.6-1.584A1.543,1.543,0,0,1-8.926,40.873Z" transform="translate(25.123 32.202)"/>
        <path id="Path_3663" data-name="Path 3663" d="M20.739,40.857a1.732,1.732,0,0,1-1.685,1.677A1.486,1.486,0,0,1,17.6,40.926a1.57,1.57,0,0,1,3.14-.068Z" transform="translate(60.731 32.202)"/>
        <path id="Path_3664" data-name="Path 3664" d="M-8.925,43.815A1.736,1.736,0,0,1-10.6,45.5a1.483,1.483,0,0,1-1.463-1.6,1.548,1.548,0,0,1,1.58-1.611A1.55,1.55,0,0,1-8.925,43.815Z" transform="translate(25.123 35.762)"/>
        <path id="Path_3665" data-name="Path 3665" d="M20.738,43.852A1.723,1.723,0,0,1,19.026,45.5,1.492,1.492,0,0,1,17.6,43.865a1.569,1.569,0,0,1,3.138-.013Z" transform="translate(60.731 35.762)"/>
        <path id="Path_3666" data-name="Path 3666" d="M-10.515,48.468a1.482,1.482,0,0,1-1.551-1.512,1.566,1.566,0,0,1,1.492-1.7A1.549,1.549,0,0,1-8.927,46.8,1.745,1.745,0,0,1-10.515,48.468Z" transform="translate(25.123 39.323)"/>
        <path id="Path_3667" data-name="Path 3667" d="M20.739,46.771a1.736,1.736,0,0,1-1.666,1.7A1.484,1.484,0,0,1,17.6,46.878a1.571,1.571,0,0,1,3.14-.108Z" transform="translate(60.731 39.323)"/>
        <path id="Path_3668" data-name="Path 3668" d="M-4.744,10.415A1.576,1.576,0,0,1-6.3,11.969a1.644,1.644,0,0,1-1.6-1.536,1.648,1.648,0,0,1,1.58-1.558A1.577,1.577,0,0,1-4.744,10.415Z" transform="translate(30.134 -4.348)"/>
      </g>
    </g>
  </g>
</svg>
