<svg xmlns="http://www.w3.org/2000/svg" width="175" height="146" viewBox="0 0 175 146">
  <g id="Group_6102" data-name="Group 6102" transform="translate(-1092 -3199)">
    <g id="Rectangle_193" data-name="Rectangle 193" transform="translate(1092 3199)" fill="#f6f4f9" stroke="#23c886" stroke-width="1">
      <rect width="175" height="146" rx="10" stroke="none"/>
      <rect x="0.5" y="0.5" width="174" height="145" rx="9.5" fill="none"/>
    </g>
    <g id="Group_6092" data-name="Group 6092" transform="translate(-4 3.939)">
      <g id="Group_6091" data-name="Group 6091">
        <path id="Path_3647" data-name="Path 3647" d="M620.734-620.8q0,11.036,0,22.073c0,1.563-.522,1.878-3.176,1.879q-34.066,0-68.131,0c-2.563,0-3.149-.358-3.15-1.92q0-21.981,0-43.961c0-1.76.5-2.055,3.373-2.055h67.821c2.8,0,3.261.27,3.262,1.91Q620.737-631.838,620.734-620.8Z" transform="translate(602.313 3882.189)" fill="#23c886"/>
        <g id="Group_6090" data-name="Group 6090" transform="translate(610 -383.201)">
          <g id="Group_6089" data-name="Group 6089" transform="translate(505.001 3617.261)">
            <path id="Path_3625" data-name="Path 3625" d="M-172.131-979.92v-.873q0-12.163,0-24.326c0-.738,0-.741-.739-.741h-71.686c-.76,0-.763,0-.763.754q0,12.138,0,24.276c0,.643,0,.645-.664.645-.894,0-1.788-.019-2.68.007-.414.012-.537-.126-.534-.538.018-2.25.008-4.5.008-6.751q0-9.83.011-19.659a3.626,3.626,0,0,1,.256-1.444,2.621,2.621,0,0,1,2.351-1.567c.28-.021.562-.006.844-.006q37.208,0,74.417-.005a3.026,3.026,0,0,1,2.115.688,2.776,2.776,0,0,1,.947,2.2c-.008,2.73,0,5.461,0,8.191q0,9.035,0,18.07c0,.675,0,.667-.67.676A7.08,7.08,0,0,0-172.131-979.92Zm-36.595-27.106a1.029,1.029,0,0,0,1.019-1,1.077,1.077,0,0,0-1-1.036,1.046,1.046,0,0,0-1.035,1.039A1.012,1.012,0,0,0-208.726-1007.026Z" transform="translate(279.808 1010.149)"/>
            <path id="Path_3626" data-name="Path 3626" d="M543.406-682.189q0,7.893,0,15.787a2.984,2.984,0,0,1-1.876,2.942,3.046,3.046,0,0,1-1.2.258q-12.187.022-24.375,0a3.046,3.046,0,0,1-3.112-3.171q-.012-15.836,0-31.673a3.035,3.035,0,0,1,3.133-3.143q12.163-.019,24.325,0a3.02,3.02,0,0,1,3.1,3.212Q543.415-690.082,543.406-682.189Zm-3.32-.513q0-5.933,0-11.866c0-.882-.149-1.027-1.048-1.027H517.242c-.924,0-1.084.159-1.084,1.1q0,11.816,0,23.632c0,.839.189,1.032,1.012,1.032q10.947,0,21.894,0c.853,0,1.021-.17,1.021-1.01Q540.086-676.77,540.086-682.7Zm-12,17.544v0c.429,0,.859.014,1.288,0a1.626,1.626,0,0,0,1.585-1.534,1.573,1.573,0,0,0-1.478-1.674,23.951,23.951,0,0,0-2.722,0,1.556,1.556,0,0,0-1.458,1.637,1.619,1.619,0,0,0,1.547,1.566C527.258-665.142,527.672-665.158,528.084-665.158Zm.9-33.3a.848.848,0,0,0-.847-.854.828.828,0,0,0-.846.795.867.867,0,0,0,.811.9A.9.9,0,0,0,528.981-698.458Z" transform="translate(-406.561 731.874)"/>
            <path id="Path_3627" data-name="Path 3627" d="M-487.609-700.138q9.928,0,19.856,0a3.365,3.365,0,0,1,3.6,3.595q0,14.718.011,29.436c0,.482-.163.6-.6.577-.495-.027-1,.029-1.487-.022-.395-.041-.776-.258-1.168-.272a25.464,25.464,0,0,0-3.518.016,10.643,10.643,0,0,1-1.266.275q-15.487-.006-30.974-.014a5.654,5.654,0,0,1-1.263-.3,2.505,2.505,0,0,0-.521-.113c-.612-.014-1.224,0-1.836-.006a2.088,2.088,0,0,0-1.508.33.719.719,0,0,1-.426.1c-.678.01-1.357,0-2.035.01-.32.007-.466-.113-.427-.437a1.261,1.261,0,0,0,0-.149q0-14.718-.006-29.436a3.286,3.286,0,0,1,2.062-3.3,3.61,3.61,0,0,1,1.4-.269Q-497.661-700.152-487.609-700.138Zm-.1,29.99H-468.4c.942,0,1.125-.185,1.125-1.131q0-11.962,0-23.923c0-.149,0-.3,0-.447a.738.738,0,0,0-.81-.8c-.165-.007-.331,0-.5,0H-506.9a3.843,3.843,0,0,0-.446.007.7.7,0,0,0-.69.705c-.011.2-.007.4-.007.6q0,11.937,0,23.874c0,.956.166,1.12,1.127,1.12Zm.783-28.161a.75.75,0,0,0-.744-.768.8.8,0,0,0-.753.722.769.769,0,0,0,.73.786A.74.74,0,0,0-486.922-698.309Z" transform="translate(515.769 730.922)"/>
            <path id="Path_3628" data-name="Path 3628" d="M319.36-610.859q0,6.327,0,12.654a2.431,2.431,0,0,1-2.665,2.64q-6.1,0-12.207,0a2.431,2.431,0,0,1-2.712-2.688q0-12.6,0-25.208a2.418,2.418,0,0,1,2.639-2.655q6.153,0,12.306,0a2.424,2.424,0,0,1,2.64,2.654Q319.365-617.161,319.36-610.859Zm-2.366-.5q0-4.741,0-9.482c0-.815-.076-.893-.869-.893q-5.56,0-11.119,0c-.774,0-.891.114-.891.888q0,9.407,0,18.814c0,.8.135.933.91.934q5.535,0,11.07,0c.793,0,.9-.1.9-.88Q317-606.665,316.995-611.356Zm-6.427,11.564c-.347,0-.7-.016-1.041,0a1.26,1.26,0,0,0-1.188,1.18,1.211,1.211,0,0,0,1.009,1.283,14.652,14.652,0,0,0,2.422,0,1.167,1.167,0,0,0,1-1.324,1.218,1.218,0,0,0-1.158-1.143C311.263-599.808,310.915-599.792,310.568-599.791Zm-.02-24.8a.745.745,0,0,0-.69.715.717.717,0,0,0,.726.72.721.721,0,0,0,.684-.758A.725.725,0,0,0,310.548-624.594Z" transform="translate(-216.453 664.251)"/>
            <path id="Path_3629" data-name="Path 3629" d="M-529.413-350.621q-12.682,0-25.365-.007a4.633,4.633,0,0,1-1.317-.181,1.852,1.852,0,0,1-1.376-1.986c-.009-1.348,0-1.359,1.344-1.359q10.7,0,21.393,0c.513,0,1-.027,1.181.624.025.092.269.175.411.176,2.515.011,5.03.016,7.545-.005.167,0,.329-.23.5-.347a4.321,4.321,0,0,1,.655-.429,1.285,1.285,0,0,1,.491-.016h21.642c.94,0,1.06.123,1.063,1.057,0,1.668-.816,2.476-2.552,2.477Q-516.606-350.617-529.413-350.621Zm22.027-2.721c-.447,0-.894.018-1.339-.005-.427-.022-.437.234-.427.543.009.284-.047.573.4.564q1.364-.027,2.729,0c.454.01.392-.284.4-.564.008-.3.008-.567-.425-.544S-506.939-353.342-507.385-353.342Zm-44.8,1.357a.8.8,0,0,0,.8-.764.819.819,0,0,0-.78-.792.79.79,0,0,0-.771.744A.778.778,0,0,0-552.19-351.985Zm4.43-.789a.794.794,0,0,0-.8-.766.821.821,0,0,0-.761.816.81.81,0,0,0,.786.739A.783.783,0,0,0-547.76-352.775Z" transform="translate(557.472 419.307)"/>
            <path id="Path_3630" data-name="Path 3630" d="M-13.346-490.838H-28.683c-.66,0-.661,0-.662-.647,0-1.522.008-3.044-.011-4.566-.005-.408.125-.542.538-.542q15.485.014,30.97,0c.411,0,.539.116.533.531-.022,1.555-.03,3.111,0,4.665.01.483-.166.569-.6.568Q-5.629-490.848-13.346-490.838Z" transform="translate(81.796 547.588)"/>
            <path id="Path_3631" data-name="Path 3631" d="M62.335-419.216a3.908,3.908,0,0,1-.792.183c-2.248.049-4.5.1-6.744.11q-6.749.034-13.5.024c-.66,0-1.321-.074-1.979-.138a4.465,4.465,0,0,1-.7-.182l-.046-.148a3.083,3.083,0,0,1,.577-.364c.745-.268,1.5-.526,2.256-.747a.859.859,0,0,0,.7-.769c.482-2.785,1-5.564,1.488-8.347.068-.389.32-.352.587-.352h7.693c1.638,0,3.276.012,4.913-.006.376,0,.521.122.585.487.48,2.735.992,5.465,1.459,8.2a.876.876,0,0,0,.733.791c.744.214,1.476.474,2.206.736a3.553,3.553,0,0,1,.577.336Z" transform="translate(20.61 487.564)"/>
            <path id="Path_3632" data-name="Path 3632" d="M488.99-493.738c0,.809-.013,1.618.006,2.426.008.351-.125.449-.462.454-1.245.021-1.244.032-1.244-1.2,0-1.337.013-2.674-.006-4.01-.006-.39.082-.556.515-.552,1.2.011,1.2-.008,1.195,1.2q0,.842,0,1.683Z" transform="translate(-383.544 547.614)"/>
            <path id="Path_3633" data-name="Path 3633" d="M149.183-997.162a1.012,1.012,0,0,1-1.015-1A1.046,1.046,0,0,1,149.2-999.2a1.077,1.077,0,0,1,1,1.036A1.029,1.029,0,0,1,149.183-997.162Z" transform="translate(-78.101 1000.285)" fill="#23c886"/>
            <path id="Path_3634" data-name="Path 3634" d="M641.125-367.707c-.413,0-.826.016-1.238,0a1.619,1.619,0,0,1-1.547-1.566,1.556,1.556,0,0,1,1.458-1.637,23.935,23.935,0,0,1,2.722,0A1.573,1.573,0,0,1,644-369.241a1.625,1.625,0,0,1-1.585,1.534c-.429.017-.859,0-1.288,0Zm.07-2.583v0c-.413,0-.827-.014-1.24,0a.963.963,0,0,0-.976.927.948.948,0,0,0,.947,1c.826.031,1.654.032,2.48,0a.945.945,0,0,0,.945-1,.943.943,0,0,0-.965-.929C641.989-370.3,641.591-370.289,641.195-370.289Z" transform="translate(-519.601 434.422)" fill="#23c886"/>
            <path id="Path_3635" data-name="Path 3635" d="M660.062-681.363a.894.894,0,0,1-.881.836.867.867,0,0,1-.811-.9.828.828,0,0,1,.846-.795A.848.848,0,0,1,660.062-681.363Z" transform="translate(-537.642 714.779)" fill="#23c886"/>
            <path id="Path_3636" data-name="Path 3636" d="M-280.548-688.672a.74.74,0,0,1-.767.741.769.769,0,0,1-.73-.786.8.8,0,0,1,.753-.722A.75.75,0,0,1-280.548-688.672Z" transform="translate(309.395 721.285)" fill="#23c886"/>
            <path id="Path_3637" data-name="Path 3637" d="M370.114-361.04c.347,0,.7-.016,1.041,0a1.218,1.218,0,0,1,1.158,1.143,1.167,1.167,0,0,1-1,1.324,14.659,14.659,0,0,1-2.422,0,1.211,1.211,0,0,1-1.009-1.283,1.26,1.26,0,0,1,1.188-1.18C369.419-361.055,369.767-361.039,370.114-361.04Zm-.01,2.011v-.006c.33,0,.663.021.991-.005a.757.757,0,0,0,.73-.74.736.736,0,0,0-.72-.742c-.659-.03-1.322-.028-1.981,0a.7.7,0,0,0-.717.733.739.739,0,0,0,.755.758C369.475-359.012,369.791-359.029,370.1-359.029Z" transform="translate(-276 425.499)" fill="#23c886"/>
            <path id="Path_3638" data-name="Path 3638" d="M383.9-610.767a.726.726,0,0,1,.72.677.722.722,0,0,1-.684.758.717.717,0,0,1-.726-.721A.745.745,0,0,1,383.9-610.767Z" transform="translate(-289.803 650.424)" fill="#23c886"/>
            <path id="Path_3639" data-name="Path 3639" d="M-69.1-345.881c.447,0,.894.019,1.339-.006s.433.242.425.544c-.007.28.054.574-.4.564q-1.364-.029-2.729,0c-.449.009-.394-.28-.4-.564-.01-.308,0-.564.427-.543C-69.99-345.863-69.542-345.881-69.1-345.881Z" transform="translate(119.182 411.846)" fill="#23c886"/>
            <path id="Path_3640" data-name="Path 3640" d="M-511.072-346.271a.778.778,0,0,1-.748-.813.79.79,0,0,1,.771-.744.819.819,0,0,1,.78.792A.8.8,0,0,1-511.072-346.271Z" transform="translate(516.354 413.593)" fill="#23c886"/>
            <path id="Path_3641" data-name="Path 3641" d="M-473.857-347.05a.783.783,0,0,1-.778.789.81.81,0,0,1-.786-.739.821.821,0,0,1,.761-.816A.794.794,0,0,1-473.857-347.05Z" transform="translate(483.568 413.583)" fill="#23c886"/>
            <path id="Path_3642" data-name="Path 3642" d="M646.981-364.345c.4,0,.794-.015,1.19,0a.943.943,0,0,1,.965.929.945.945,0,0,1-.945,1c-.826.029-1.654.027-2.48,0a.948.948,0,0,1-.947-1,.963.963,0,0,1,.976-.927c.413-.017.827,0,1.24,0Z" transform="translate(-525.387 428.478)"/>
            <path id="Path_3643" data-name="Path 3643" d="M374.86-354.474c-.314,0-.629.017-.942,0a.739.739,0,0,1-.755-.758.7.7,0,0,1,.716-.733c.66-.026,1.322-.028,1.981,0a.736.736,0,0,1,.72.742.757.757,0,0,1-.73.74c-.328.026-.661.005-.991.005Z" transform="translate(-280.755 420.944)"/>
          </g>
        </g>
        <path id="Path_3644" data-name="Path 3644" d="M570.236-631.84q0,5.957,0,11.914c0,.844-.168,1.014-1.022,1.014q-10.963,0-21.926,0c-.825,0-1.013-.193-1.014-1.036q0-11.864,0-23.728c0-.95.16-1.109,1.085-1.109h21.826c.9,0,1.05.146,1.05,1.031Q570.237-637.8,570.236-631.84Z" transform="translate(678.313 3915.199)" fill="#23c886"/>
        <path id="Path_3645" data-name="Path 3645" d="M587.478-631.473q0,6.126,0,12.252c0,.868-.289,1.043-1.758,1.043q-18.851,0-37.7,0c-1.418,0-1.743-.2-1.743-1.066q0-12.2,0-24.4c0-.977.276-1.141,1.866-1.141h37.531c1.548,0,1.8.15,1.805,1.06Q587.48-637.6,587.478-631.473Z" transform="translate(576.313 3913.189)" fill="#23c886"/>
        <path id="Path_3646" data-name="Path 3646" d="M559.031-634.34q0,4.807,0,9.613c0,.681-.089.818-.544.818q-5.837,0-11.673,0c-.439,0-.54-.156-.54-.836q0-9.573,0-19.146c0-.767.085-.9.578-.9h11.62c.479,0,.559.118.559.832Q559.032-639.147,559.031-634.34Z" transform="translate(656.426 3921.279)" fill="#23c886"/>
      </g>
    </g>
  </g>
</svg>
