<svg xmlns="http://www.w3.org/2000/svg" width="174" height="146" viewBox="0 0 174 146">
  <g id="Group_6101" data-name="Group 6101" transform="translate(-814 -8324)">
    <g id="Rectangle_193" data-name="Rectangle 193" transform="translate(814 8324)" fill="#f6f4f9" stroke="#23c886" stroke-width="1">
      <rect width="174" height="146" rx="10" stroke="none"/>
      <rect x="0.5" y="0.5" width="173" height="145" rx="9.5" fill="none"/>
    </g>
    <g id="Group_6088" data-name="Group 6088" transform="translate(761.526 8201.393)">
      <path id="Path_3615" data-name="Path 3615" d="M178.965,197.742a8.237,8.237,0,0,0,.2-1.285c0-3.438-.042-6.875-.023-10.312a1.6,1.6,0,0,0-1.373-1.845,14.513,14.513,0,0,1-8.988-6.2,35.758,35.758,0,0,1-2.129-3.972,28.472,28.472,0,0,0-8.5-10.278,29.917,29.917,0,0,0-21.844-6.3,30.424,30.424,0,0,0-20.637,10.961,42.811,42.811,0,0,0-5.269,8.776,12.871,12.871,0,0,1-7.392,6.447,8.616,8.616,0,0,1-1.824.595c-1.264.152-1.707.794-1.694,2.036.035,3.361-.022,6.723-.021,10.085a9.546,9.546,0,0,0,.217,1.4,33.989,33.989,0,0,1,2.589-2.781c3.319-2.851,9.127-1.542,10.838,2.482a10.185,10.185,0,0,1,.826,3.8c.07,8.2-.056,16.4.066,24.591a7.436,7.436,0,0,1-8.322,7.543,6.9,6.9,0,0,1-5.454-3.918,2.208,2.208,0,0,0-2.34-1.488c-1.831.07-3.678.2-5.41-.776-2.228-1.256-3.805-3.067-3.887-5.588-.175-5.433-.13-10.878-.028-16.315.054-2.873,2.856-5.82,5.812-6.268,1.14-.173,1.4-.664,1.39-1.705-.038-3.626-.054-7.254.019-10.879a41.591,41.591,0,0,1,4.268-17.2A43.054,43.054,0,0,1,114.924,152.1a44.147,44.147,0,0,1,27.9-7.335,44.117,44.117,0,0,1,15.193,4.125A43.678,43.678,0,0,1,174.4,162.4a42.135,42.135,0,0,1,5.9,11.128,44.862,44.862,0,0,1,2.594,16.78c-.081,2.453,0,4.911-.029,7.366-.012.863.263,1.268,1.182,1.417a7.208,7.208,0,0,1,6.06,7c.046,4.986.062,9.973,0,14.959a6.764,6.764,0,0,1-4.1,6.261,2.023,2.023,0,0,0-1.331,2.1,12.287,12.287,0,0,1-5.4,10.853,11.474,11.474,0,0,1-6.844,2.332c-7.555,0-15.11.023-22.665,0a2.43,2.43,0,0,0-2.327,1.221,4.892,4.892,0,0,1-4.134,2.393c-2.681.036-5.365.054-8.045-.009a5.6,5.6,0,0,1-4.94-4.158,5.322,5.322,0,0,1,2.639-5.955,7.431,7.431,0,0,1,2.879-.781c2.375-.109,4.758-.029,7.138-.031a5.194,5.194,0,0,1,4.586,2.612,2,2,0,0,0,1.867,1.018c7.479-.021,14.959.005,22.438-.027a9.013,9.013,0,0,0,9.076-9.369c-.012-.462-.411-.915-.631-1.372a5.377,5.377,0,0,0-1.55.836,34.51,34.51,0,0,1-2.522,3.114c-3.269,2.809-9.047,1.424-10.73-2.556a9.949,9.949,0,0,1-.812-3.69c-.068-8.31-.051-16.621-.025-24.932a7.293,7.293,0,0,1,8.863-7.207,7.414,7.414,0,0,1,4.724,3.429q.211.321.421.643Zm-39.614-49.449a40.88,40.88,0,0,0-16.137,3.459,39.966,39.966,0,0,0-21.7,23.725,34.856,34.856,0,0,0-1.018,3.592,1.445,1.445,0,0,0,.155,1.151c.166.175.751.042,1.11-.074a9.036,9.036,0,0,0,5.6-5.1,38.154,38.154,0,0,1,6.453-10.14,34.156,34.156,0,0,1,9.7-7.467,35.435,35.435,0,0,1,9.376-3.2,34.159,34.159,0,0,1,25.127,4.865,33.838,33.838,0,0,1,10.372,10.39c1.3,2.065,2.286,4.321,3.575,6.39a9.685,9.685,0,0,0,5.279,4.222c.766.251,1.076-.091,1.006-.84a4.845,4.845,0,0,0-.186-.886,44.469,44.469,0,0,0-5.039-11.542,39.234,39.234,0,0,0-16.581-14.725A38.759,38.759,0,0,0,139.352,148.293ZM175.527,213.5h.007q0-3.112,0-6.225c0-2.113.026-4.226-.022-6.338a3.6,3.6,0,0,0-3.764-3.639,3.651,3.651,0,0,0-3.356,3.724c-.028,4.263-.016,8.527-.016,12.79,0,4.112-.019,8.225.019,12.337a3.61,3.61,0,0,0,3.774,3.64,3.65,3.65,0,0,0,3.351-3.725C175.545,221.88,175.527,217.692,175.527,213.5Zm-65.281.031h.01q0-3.112,0-6.225c0-2.113.018-4.226-.022-6.338a3.606,3.606,0,0,0-3.745-3.669,3.646,3.646,0,0,0-3.378,3.7c-.03,4.565-.02,9.129-.019,13.694,0,3.81-.014,7.621.03,11.431a3.591,3.591,0,0,0,3.739,3.673,3.649,3.649,0,0,0,3.377-3.7C110.265,221.91,110.246,217.723,110.246,213.535Zm-10.867.129h-.006c0-3.207-.023-6.415.014-9.622.011-.973-.343-1.387-1.322-1.327-.79.048-1.586-.018-2.376.024a3.583,3.583,0,0,0-3.446,3.509c-.039,4.867-.02,9.736-.014,14.6a3.511,3.511,0,0,0,1.586,2.829c1.279,1.011,2.74.586,4.138.708,1.08.095,1.461-.367,1.444-1.441C99.348,219.853,99.379,216.758,99.379,213.664Zm79.877-.109c0,3.169.022,6.339-.013,9.508-.011.972.349,1.388,1.327,1.328.79-.049,1.585,0,2.376-.034a3.562,3.562,0,0,0,3.435-3.393c.049-4.942.027-9.885.012-14.828a3.45,3.45,0,0,0-1.482-2.66c-1.282-1.078-2.8-.646-4.233-.77-1.095-.095-1.449.4-1.435,1.456C179.285,207.291,179.258,210.423,179.256,213.555Zm-39.992,28.955v.009c.528,0,1.057,0,1.585,0,.566,0,1.132.008,1.7-.01a1.957,1.957,0,0,0,2.118-1.738,1.886,1.886,0,0,0-2.07-1.774q-3.282-.036-6.566,0a1.887,1.887,0,0,0-2.06,1.785,1.911,1.911,0,0,0,2.013,1.72C137.074,242.532,138.169,242.509,139.263,242.509Z" transform="translate(0)"/>
      <path id="Path_3616" data-name="Path 3616" d="M230.627,267.58a11.887,11.887,0,0,1-1.74-2.085,2.692,2.692,0,0,1-.126-1.965,1.546,1.546,0,0,1,1.988-.874,2.931,2.931,0,0,1,1.123.727c1.669,1.638,3.34,3.276,4.948,4.972,1.051,1.108,1.071,1.886.043,2.956q-2.625,2.731-5.389,5.326a1.6,1.6,0,0,1-2.42-.048,1.642,1.642,0,0,1-.175-2.42c.562-.692,1.187-1.331,1.926-2.152a8.1,8.1,0,0,0-1.188-.374,23.383,23.383,0,0,1-16.046-8.944,22.83,22.83,0,0,1-4.463-19.912,22.553,22.553,0,0,1,8.345-13.184,23.605,23.605,0,0,1,38.254,17.96c.018,1.423-.648,2.288-1.737,2.344-1.158.059-1.909-.778-1.973-2.248a19.362,19.362,0,0,0-6.576-14.268,19.835,19.835,0,0,0-32.6,19.435,19.872,19.872,0,0,0,8.673,12.089,20.854,20.854,0,0,0,7.9,2.925,1.831,1.831,0,0,0,.562.013A4.035,4.035,0,0,0,230.627,267.58Z" transform="translate(-92.787 -61.745)"/>
      <path id="Path_3617" data-name="Path 3617" d="M253.414,296.093a15.829,15.829,0,0,0,1.642.224c1.358.028,2.717-.007,4.075.025a1.856,1.856,0,1,1,.02,3.686q-4.3.038-8.6,0a1.968,1.968,0,0,1-2.076-2.046,4.265,4.265,0,0,1,1.405-3.828c2.385-2.245,4.613-4.656,6.921-6.984a1.765,1.765,0,0,0,.535-2.142,2.213,2.213,0,0,0-1.963-1.3c-2.342-.118-3.12.6-3.211,2.961a2.787,2.787,0,0,1-.532,1.74,2.108,2.108,0,0,1-1.752.578,2.25,2.25,0,0,1-1.313-1.482c-.4-3.081.2-5.682,3.5-7.049a6.806,6.806,0,0,1,6.8.624,5.555,5.555,0,0,1,2.37,5.308,6.13,6.13,0,0,1-2.067,3.778c-1.565,1.579-3.163,3.125-4.737,4.7C254.137,295.163,253.9,295.5,253.414,296.093Z" transform="translate(-123.707 -104.584)"/>
      <path id="Path_3618" data-name="Path 3618" d="M333.179,290.68c0,2.678.008,5.357,0,8.035a1.838,1.838,0,0,1-1.406,1.839,1.67,1.67,0,0,1-2-.908,2.556,2.556,0,0,1-.271-1.185c-.037-1.206-.064-2.416-.008-3.62.049-1.057-.326-1.521-1.426-1.46a6.7,6.7,0,0,1-6.2-3.024,9.116,9.116,0,0,1-1.361-3.507,22.163,22.163,0,0,1-.068-4.178,1.85,1.85,0,1,1,3.685-.021c.036,1.017.005,2.037.021,3.055a3.749,3.749,0,0,0,4.162,3.977c.891-.018,1.2-.385,1.186-1.233-.021-2-.02-4,.023-6a1.789,1.789,0,0,1,1.477-1.77,1.679,1.679,0,0,1,1.961,1,3.3,3.3,0,0,1,.243,1.421c.029,1.282.007,2.565.006,3.848q0,1.868,0,3.735Z" transform="translate(-179.328 -105.186)"/>
      <path id="Path_3619" data-name="Path 3619" d="M180.2,160.864a38.759,38.759,0,0,1,17.089,3.82,39.234,39.234,0,0,1,16.581,14.725,44.47,44.47,0,0,1,5.039,11.542,4.844,4.844,0,0,1,.186.886c.07.748-.24,1.09-1.006.84a9.685,9.685,0,0,1-5.279-4.222c-1.289-2.069-2.28-4.325-3.575-6.39a34.6,34.6,0,0,0-23.674-15.477,33.379,33.379,0,0,0-11.825.222,35.435,35.435,0,0,0-9.376,3.2,34.157,34.157,0,0,0-9.7,7.467,38.153,38.153,0,0,0-6.453,10.14,9.036,9.036,0,0,1-5.6,5.1c-.359.116-.944.248-1.11.074a1.445,1.445,0,0,1-.155-1.151,34.854,34.854,0,0,1,1.018-3.592,39.965,39.965,0,0,1,21.7-23.725A40.88,40.88,0,0,1,180.2,160.864Z" transform="translate(-40.847 -12.571)" fill="#23c886"/>
      <path id="Path_3620" data-name="Path 3620" d="M448.1,393.259c0,4.188.018,8.376-.008,12.564a3.65,3.65,0,0,1-3.351,3.725,3.61,3.61,0,0,1-3.774-3.64c-.038-4.112-.019-8.225-.019-12.337,0-4.263-.012-8.527.016-12.79a3.651,3.651,0,0,1,3.356-3.724,3.6,3.6,0,0,1,3.764,3.639c.048,2.112.019,4.225.022,6.338q0,3.113,0,6.225Z" transform="translate(-272.575 -179.755)" fill="#23c886"/>
      <path id="Path_3621" data-name="Path 3621" d="M160.105,393.3c0,4.188.019,8.375-.008,12.563a3.649,3.649,0,0,1-3.377,3.7,3.591,3.591,0,0,1-3.739-3.673c-.044-3.81-.029-7.62-.03-11.431,0-4.565-.011-9.13.019-13.694a3.646,3.646,0,0,1,3.378-3.7,3.606,3.606,0,0,1,3.745,3.669c.041,2.112.02,4.225.022,6.338q0,3.112,0,6.225Z" transform="translate(-49.859 -179.769)" fill="#23c886"/>
      <path id="Path_3622" data-name="Path 3622" d="M112.151,411.882c0,3.094-.031,6.189.017,9.283.017,1.074-.364,1.536-1.444,1.441-1.4-.122-2.859.3-4.138-.708A3.511,3.511,0,0,1,105,419.068c-.005-4.868-.025-9.736.014-14.6a3.583,3.583,0,0,1,3.446-3.509c.79-.042,1.587.024,2.376-.024.979-.059,1.334.354,1.322,1.327-.037,3.207-.014,6.415-.014,9.622Z" transform="translate(-12.772 -198.218)" fill="#23c886"/>
      <path id="Path_3623" data-name="Path 3623" d="M488.921,411.719c0-3.132.028-6.263-.014-9.395-.014-1.055.34-1.55,1.435-1.456,1.435.124,2.951-.307,4.233.77a3.449,3.449,0,0,1,1.482,2.66c.015,4.942.037,9.885-.012,14.828a3.562,3.562,0,0,1-3.435,3.393c-.791.039-1.586-.014-2.376.034-.978.061-1.338-.355-1.327-1.328C488.942,418.058,488.92,414.889,488.921,411.719Z" transform="translate(-309.665 -198.165)" fill="#23c886"/>
      <path id="Path_3624" data-name="Path 3624" d="M294.468,564.466c-1.094,0-2.189.023-3.283-.006a1.911,1.911,0,0,1-2.013-1.72,1.887,1.887,0,0,1,2.06-1.785q3.283-.038,6.566,0a1.886,1.886,0,0,1,2.07,1.774,1.957,1.957,0,0,1-2.118,1.738c-.566.018-1.132.008-1.7.01-.528,0-1.057,0-1.585,0Z" transform="translate(-155.205 -321.957)" fill="#23c886"/>
    </g>
  </g>
</svg>
