<svg xmlns="http://www.w3.org/2000/svg" xmlns:xlink="http://www.w3.org/1999/xlink" width="175" height="146" viewBox="0 0 175 146">
  <defs>
    <radialGradient id="radial-gradient" cx="0.266" cy="1.077" r="0.991" gradientTransform="translate(-2.918 5.666) rotate(-90) scale(1 0.93)" gradientUnits="objectBoundingBox">
      <stop offset="0" stop-color="#fd5"/>
      <stop offset="0.1" stop-color="#fd5"/>
      <stop offset="0.5" stop-color="#ff543e"/>
      <stop offset="1" stop-color="#c837ab"/>
    </radialGradient>
  </defs>
  <g id="Group_6103" data-name="Group 6103" transform="translate(-531 -3199)">
    <g id="Rectangle_193" data-name="Rectangle 193" transform="translate(531 3199)" fill="#f6f4f9" stroke="#23c886" stroke-width="1">
      <rect width="175" height="146" rx="10" stroke="none"/>
      <rect x="0.5" y="0.5" width="174" height="145" rx="9.5" fill="none"/>
    </g>
    <g id="Group_6097" data-name="Group 6097" transform="translate(1713.654 126.955) rotate(30)">
      <g id="Group_6096" data-name="Group 6096">
        <rect id="Rectangle_200" data-name="Rectangle 200" width="51" height="74" transform="translate(599 3235)" fill="#23c886"/>
        <rect id="Rectangle_201" data-name="Rectangle 201" width="39" height="8" transform="translate(607 3231)" fill="#23c886"/>
        <rect id="Rectangle_202" data-name="Rectangle 202" width="39" height="8" transform="translate(607 3305)" fill="#23c886"/>
        <g id="Group_6095" data-name="Group 6095">
          <g id="Icons" transform="translate(584.011 3219.42)">
            <g id="Group_6094" data-name="Group 6094" transform="translate(14.989 8.597)">
              <circle id="Ellipse_673" data-name="Ellipse 673" cx="1.818" cy="1.818" r="1.818" transform="translate(23.479 79.802)" fill="none"/>
              <path id="Path_3648" data-name="Path 3648" d="M21.356,12.443H31.845a.986.986,0,0,0,0-1.972H21.356a.986.986,0,0,0,0,1.972Z" transform="translate(-5.21 -5.191)" fill="none"/>
              <path id="Path_3649" data-name="Path 3649" d="M27.034,14.185a.985.985,0,0,0-1.392-.073l-8.086,7.274a.987.987,0,0,0,1.318,1.468l8.086-7.274A.986.986,0,0,0,27.034,14.185Z" transform="translate(-10.919 0.964)" fill="none"/>
              <ellipse id="Ellipse_674" data-name="Ellipse 674" cx="1.029" cy="0.926" rx="1.029" ry="0.926" transform="translate(32.39 5.34)" fill="none"/>
              <path id="Path_3650" data-name="Path 3650" d="M25.524,16.87A.987.987,0,1,0,24.206,15.4l-5.037,4.533A.987.987,0,1,0,20.487,21.4Z" transform="translate(-7.989 3.31)" fill="none"/>
              <path id="Path_3651" data-name="Path 3651" d="M32.947,12.683v.165l.18-.093Z" transform="translate(17.646 -1.172)" fill="none"/>
              <path id="Path_3652" data-name="Path 3652" d="M63.61,19.325h1.972V15.544A6.956,6.956,0,0,0,58.635,8.6h-36.7a6.958,6.958,0,0,0-6.947,6.947v3.781H63.61Zm-15.2-5.389a.932.932,0,1,1-1.028.927A.982.982,0,0,1,48.408,13.936Zm-17.273-.059H41.624a.986.986,0,0,1,0,1.972H31.135a.986.986,0,0,1,0-1.972Z" transform="translate(-14.989 -8.597)" fill="#303030"/>
              <path id="Path_3653" data-name="Path 3653" d="M16.961,36.525H14.989v1.161a6.958,6.958,0,0,0,6.947,6.947h36.7a6.956,6.956,0,0,0,6.947-6.947V36.525H16.961Zm23.324,4.758a1.819,1.819,0,1,1,1.82-1.82A1.819,1.819,0,0,1,40.286,41.283Z" transform="translate(-14.989 42.157)" fill="#303030"/>
              <path id="Path_3654" data-name="Path 3654" d="M16.961,13.1H14.989V77.111H65.582V13.1H16.961Zm5.325,11.368a.986.986,0,0,1-.659-1.719l8.086-7.274a.987.987,0,0,1,1.318,1.468l-8.086,7.274A.985.985,0,0,1,22.286,24.473Zm3.809.572a.986.986,0,0,1,.073-1.395l5.037-4.533a.987.987,0,1,1,1.318,1.468l-5.037,4.533a.984.984,0,0,1-1.392-.073ZM53.482,50.877A7.431,7.431,0,0,1,46.055,58.3H34.513a7.43,7.43,0,0,1-7.424-7.424V39.337a7.432,7.432,0,0,1,7.424-7.424H46.055a7.432,7.432,0,0,1,7.426,7.424Z" transform="translate(-14.989 -0.405)" fill="#303030"/>
              <path id="Path_3655" data-name="Path 3655" d="M36.978,20.48H25.435a5.458,5.458,0,0,0-5.451,5.454v11.54a5.458,5.458,0,0,0,5.451,5.454H36.978a5.461,5.461,0,0,0,5.454-5.454V25.934A5.461,5.461,0,0,0,36.978,20.48Zm-5.77,18.014A6.79,6.79,0,1,1,38,31.707,6.795,6.795,0,0,1,31.208,38.494Zm7.666-13.371a.834.834,0,1,1,.834-.834A.836.836,0,0,1,38.874,25.123Z" transform="translate(-5.912 12.998)" fill="#303030"/>
            </g>
          </g>
          <g id="Instagram-Logo.wine" transform="translate(610.76 3258.817)">
            <path id="Path_3656" data-name="Path 3656" d="M13.631,0C7.942,0,6.278.006,5.955.033A6.761,6.761,0,0,0,3.269.708,5.44,5.44,0,0,0,1.7,1.854,5.848,5.848,0,0,0,.125,5.168,24.592,24.592,0,0,0,0,9.19c0,1.085,0,2.513,0,4.428,0,5.685.006,7.347.034,7.669a6.844,6.844,0,0,0,.65,2.633A5.741,5.741,0,0,0,4.4,26.959a9.668,9.668,0,0,0,1.979.262c.337.015,3.777.025,7.219.025s6.883,0,7.213-.021a9.31,9.31,0,0,0,2.05-.268,5.705,5.705,0,0,0,3.721-3.046,6.732,6.732,0,0,0,.642-2.582c.018-.235.026-3.978.026-7.716s-.008-7.475-.027-7.709A6.657,6.657,0,0,0,26.571,3.3,5.4,5.4,0,0,0,25.4,1.7,5.882,5.882,0,0,0,22.087.125,24.558,24.558,0,0,0,18.066,0Z" transform="translate(0)" fill="url(#radial-gradient)"/>
            <path id="Path_3657" data-name="Path 3657" d="M13.631,0C7.942,0,6.278.006,5.955.033A6.761,6.761,0,0,0,3.269.708,5.44,5.44,0,0,0,1.7,1.854,5.848,5.848,0,0,0,.125,5.168,24.592,24.592,0,0,0,0,9.19c0,1.085,0,2.513,0,4.428,0,5.685.006,7.347.034,7.669a6.844,6.844,0,0,0,.65,2.633A5.741,5.741,0,0,0,4.4,26.959a9.668,9.668,0,0,0,1.979.262c.337.015,3.777.025,7.219.025s6.883,0,7.213-.021a9.31,9.31,0,0,0,2.05-.268,5.705,5.705,0,0,0,3.721-3.046,6.732,6.732,0,0,0,.642-2.582c.018-.235.026-3.978.026-7.716s-.008-7.475-.027-7.709A6.657,6.657,0,0,0,26.571,3.3,5.4,5.4,0,0,0,25.4,1.7,5.882,5.882,0,0,0,22.087.125,24.558,24.558,0,0,0,18.066,0Z" transform="translate(0)" fill="#23c886"/>
            <path id="Path_3658" data-name="Path 3658" d="M27.062,17c-2.732,0-3.075.012-4.149.061a7.383,7.383,0,0,0-2.442.467,5.147,5.147,0,0,0-2.943,2.942,7.349,7.349,0,0,0-.467,2.442c-.048,1.073-.06,1.416-.06,4.149s.012,3.074.061,4.147a7.394,7.394,0,0,0,.467,2.442,5.149,5.149,0,0,0,2.942,2.943,7.389,7.389,0,0,0,2.442.467c1.073.049,1.416.061,4.148.061s3.075-.012,4.148-.061a7.394,7.394,0,0,0,2.443-.467,5.155,5.155,0,0,0,2.942-2.943,7.457,7.457,0,0,0,.467-2.442c.048-1.073.061-1.415.061-4.148s-.013-3.075-.061-4.149a7.454,7.454,0,0,0-.467-2.442,5.147,5.147,0,0,0-2.943-2.942,7.406,7.406,0,0,0-2.444-.467C30.134,17.012,29.792,17,27.059,17Zm-.9,1.813h.9c2.686,0,3,.01,4.066.058A5.57,5.57,0,0,1,33,19.217a3.334,3.334,0,0,1,1.909,1.91,5.559,5.559,0,0,1,.346,1.868c.048,1.061.059,1.379.059,4.064s-.01,3-.059,4.064a5.565,5.565,0,0,1-.346,1.868A3.336,3.336,0,0,1,33,34.9a5.55,5.55,0,0,1-1.868.347c-1.061.048-1.379.059-4.066.059s-3-.01-4.066-.059a5.581,5.581,0,0,1-1.868-.347,3.333,3.333,0,0,1-1.91-1.909,5.559,5.559,0,0,1-.346-1.868c-.048-1.061-.058-1.379-.058-4.066s.01-3,.058-4.064a5.57,5.57,0,0,1,.346-1.868,3.334,3.334,0,0,1,1.91-1.91A5.558,5.558,0,0,1,23,18.867c.928-.042,1.288-.054,3.163-.057Zm6.273,1.671a1.207,1.207,0,1,0,1.207,1.207,1.207,1.207,0,0,0-1.207-1.207Zm-5.371,1.411a5.166,5.166,0,1,0,5.166,5.167,5.167,5.167,0,0,0-5.166-5.167Zm0,1.813a3.354,3.354,0,1,1-3.354,3.354A3.354,3.354,0,0,1,27.062,23.707Z" transform="translate(-13.437 -13.437)" fill="#fff"/>
          </g>
        </g>
      </g>
    </g>
  </g>
</svg>
