<svg id="Component_4_1" data-name="Component 4 – 1" xmlns="http://www.w3.org/2000/svg" width="57" height="56" viewBox="0 0 57 56">
  <g id="Rectangle_85" data-name="Rectangle 85" fill="#f6f4f9" stroke="#fff" stroke-width="1">
    <rect width="57" height="56" rx="20" stroke="none"/>
    <rect x="0.5" y="0.5" width="56" height="55" rx="19.5" fill="none"/>
  </g>
  <g id="Group_6071" data-name="Group 6071" transform="translate(7.004 8)">
    <path id="Path_3571" data-name="Path 3571" d="M140.279,257.263a22.913,22.913,0,0,1-6.943-1,21.729,21.729,0,0,1-15.072-17.289,21.053,21.053,0,0,1-.112-6.637,6.21,6.21,0,0,1,4.123-5.053c1.06-.421,2.142-.787,3.215-1.176a1.356,1.356,0,0,1,1.789.7q1.494,2.871,2.984,5.744a1.372,1.372,0,0,1-.47,1.9,4.621,4.621,0,0,0-2.021,3.125,4.994,4.994,0,0,0,.527,2.863,12.416,12.416,0,0,0,2.345,3.3,14.6,14.6,0,0,0,3.713,2.967,5.777,5.777,0,0,0,2.7.765,4.35,4.35,0,0,0,3.278-1.537,5.67,5.67,0,0,0,.468-.592,1.364,1.364,0,0,1,1.741-.453q2.982,1.536,5.951,3.1a1.279,1.279,0,0,1,.652,1.547,38.284,38.284,0,0,1-1.552,4.079,6.108,6.108,0,0,1-5.125,3.5C141.743,257.19,141.01,257.214,140.279,257.263Zm5.875-7.419c-.118-.064-.2-.11-.284-.154-1.111-.577-2.225-1.151-3.333-1.736-.173-.091-.3-.112-.418.061a.842.842,0,0,1-.116.118,6.947,6.947,0,0,1-5.116,2.067,8.521,8.521,0,0,1-3.933-1.142,17.969,17.969,0,0,1-4.57-3.742,14.113,14.113,0,0,1-2.745-4.133,7.45,7.45,0,0,1-.5-4.418,7.173,7.173,0,0,1,2.051-3.683c.093-.092.2-.16.1-.333q-.928-1.755-1.833-3.522c-.069-.135-.139-.157-.278-.1-.678.255-1.368.48-2.039.754a3.562,3.562,0,0,0-2.269,2.677,9.962,9.962,0,0,0-.148,1.5,19.286,19.286,0,0,0,1.711,9.343,18.671,18.671,0,0,0,10.725,9.929,19.781,19.781,0,0,0,9.049,1.077,3.5,3.5,0,0,0,2.983-2.071C145.573,251.538,145.834,250.69,146.154,249.843Z" transform="translate(-117.938 -216.701)"/>
    <path id="Path_3572" data-name="Path 3572" d="M518.664,29.275H526.3a4.832,4.832,0,0,1,4.842,4.394c.017.172.025.346.025.519q0,4.22,0,8.441a4.832,4.832,0,0,1-4.093,4.9,5.392,5.392,0,0,1-.918.068c-1.978.006-3.956,0-5.934.008a.936.936,0,0,0-.443.117c-1.408.806-2.807,1.628-4.214,2.436A3.755,3.755,0,0,1,510,47.733a.285.285,0,0,0-.25-.253,4.821,4.821,0,0,1-3.806-4.113,3.889,3.889,0,0,1-.034-.589q0-4.3,0-8.606a4.831,4.831,0,0,1,4.146-4.851,4.528,4.528,0,0,1,.683-.045Q514.7,29.273,518.664,29.275Zm-.115,2.716h-4.114c-1.253,0-2.507-.017-3.759.011a2.1,2.1,0,0,0-2.044,2.1q-.01,4.339,0,8.678a2.09,2.09,0,0,0,1.709,2.04,5.131,5.131,0,0,0,.894.051,1.365,1.365,0,0,1,1.429,1.8.985.985,0,0,0,.23.924,1.018,1.018,0,0,0,1.35.182q2.3-1.329,4.6-2.665a1.731,1.731,0,0,1,.9-.24q3.251.006,6.5,0a2.121,2.121,0,0,0,2.2-2.211q0-4.221,0-8.441a2.583,2.583,0,0,0-.077-.654,2.116,2.116,0,0,0-2.133-1.57Q522.391,31.987,518.549,31.991Z" transform="translate(-487.566 -29.275)"/>
    <path id="Path_3573" data-name="Path 3573" d="M201.695,312.131c-.32.846-.581,1.694-.956,2.488a3.5,3.5,0,0,1-2.983,2.071,19.781,19.781,0,0,1-9.049-1.077,18.671,18.671,0,0,1-10.725-9.929,19.287,19.287,0,0,1-1.711-9.343,9.965,9.965,0,0,1,.148-1.5,3.562,3.562,0,0,1,2.269-2.677c.67-.274,1.36-.5,2.038-.754.139-.052.209-.03.278.1q.909,1.765,1.833,3.522c.092.174-.011.241-.1.333a7.173,7.173,0,0,0-2.051,3.683,7.45,7.45,0,0,0,.5,4.418,14.111,14.111,0,0,0,2.745,4.133,17.97,17.97,0,0,0,4.57,3.742,8.521,8.521,0,0,0,3.933,1.142,6.947,6.947,0,0,0,5.116-2.067.838.838,0,0,0,.116-.118c.12-.172.246-.152.419-.061,1.107.585,2.221,1.158,3.333,1.736C201.494,312.021,201.576,312.067,201.695,312.131Z" transform="translate(-173.479 -278.989)" fill="#15cd97"/>
    <path id="Path_3574" data-name="Path 3574" d="M573.2,86.621q3.842,0,7.684,0a2.116,2.116,0,0,1,2.133,1.57,2.58,2.58,0,0,1,.077.654q.007,4.221,0,8.441a2.121,2.121,0,0,1-2.2,2.211q-3.251.009-6.5,0a1.731,1.731,0,0,0-.9.24q-2.3,1.338-4.6,2.665a1.018,1.018,0,0,1-1.35-.182.985.985,0,0,1-.23-.924,1.365,1.365,0,0,0-1.429-1.8,5.129,5.129,0,0,1-.894-.051,2.09,2.09,0,0,1-1.709-2.04q-.01-4.339,0-8.678a2.1,2.1,0,0,1,2.044-2.1c1.253-.027,2.506-.01,3.759-.011Zm-.008,5.208h0c1.276,0,2.552.008,3.828,0a1.361,1.361,0,0,0,.018-2.721q-3.851-.012-7.7,0a1.344,1.344,0,0,0-1.284,1,1.358,1.358,0,0,0,1.337,1.721C570.657,91.837,571.925,91.83,573.193,91.83Zm-.035,5.059c1.284,0,2.567,0,3.851,0a1.338,1.338,0,0,0,1.361-1.266,1.363,1.363,0,0,0-1.461-1.459q-3.709,0-7.419,0c-.063,0-.126,0-.189.007a1.361,1.361,0,0,0,.123,2.719Z" transform="translate(-542.219 -83.906)" fill="#15cd97"/>
    <path id="Path_3575" data-name="Path 3575" d="M668.343,141.84c-1.268,0-2.536.007-3.8,0a1.358,1.358,0,0,1-1.337-1.721,1.344,1.344,0,0,1,1.284-1q3.851-.008,7.7,0a1.361,1.361,0,0,1-.018,2.721c-1.276.011-2.552,0-3.828,0Z" transform="translate(-637.369 -133.916)"/>
    <path id="Path_3576" data-name="Path 3576" d="M668.357,248.881h-3.733a1.361,1.361,0,0,1-.123-2.719c.063-.006.126-.007.189-.007q3.709,0,7.419,0a1.363,1.363,0,0,1,1.461,1.459,1.338,1.338,0,0,1-1.361,1.266C670.925,248.884,669.641,248.881,668.357,248.881Z" transform="translate(-637.419 -235.898)"/>
  </g>
</svg>
