<svg xmlns="http://www.w3.org/2000/svg" width="57" height="56" viewBox="0 0 57 56">
  <g id="Group_6073" data-name="Group 6073" transform="translate(-1430 -2344)">
    <g id="Rectangle_85" data-name="Rectangle 85" transform="translate(1430 2344)" fill="#f6f4f9" stroke="#fff" stroke-width="1">
      <rect width="57" height="56" rx="20" stroke="none"/>
      <rect x="0.5" y="0.5" width="56" height="55" rx="19.5" fill="none"/>
    </g>
    <g id="Group_6072" data-name="Group 6072" transform="translate(523.295 1736.361)">
      <path id="Path_3577" data-name="Path 3577" d="M917.006,652.947c0-.693,0-1.356,0-2.019,0-.721.265-.986.981-.99.42,0,.839,0,1.28,0V631.717A6.442,6.442,0,0,1,918,631.7a2.2,2.2,0,0,1-1.742-2.169c-.008-.98-.009-1.961,0-2.94a1.319,1.319,0,0,1,.129-.555c1.466-2.942,2.945-5.878,4.409-8.821a.942.942,0,0,1,.944-.58q13.468.011,26.935,0a.922.922,0,0,1,.925.553q2.21,4.429,4.427,8.854a1.328,1.328,0,0,1,.125.556c.012.956.012,1.912,0,2.868a2.265,2.265,0,0,1-2.825,2.245c-.046-.01-.093-.011-.176-.021v18.244h1.2c.792,0,1.044.25,1.044,1.036,0,.65,0,1.3,0,1.99h1.3c.619,0,.975.29.966.78-.009.472-.358.744-.961.745H914.527c-.653,0-1.307,0-1.96,0a.767.767,0,1,1-.012-1.523c1.4,0,2.807,0,4.211,0C916.825,652.964,916.884,652.956,917.006,652.947Zm35.119-27.236c-.054-.13-.081-.209-.118-.283-1.167-2.334-2.34-4.666-3.5-7.005-.117-.236-.274-.256-.492-.255q-12.812,0-25.624,0a.5.5,0,0,0-.526.323c-.933,1.885-1.879,3.763-2.82,5.644-.257.514-.507,1.03-.778,1.581Zm-5.582,5.969a2.418,2.418,0,0,1-2.093-.337.435.435,0,0,0-.369.048,2.259,2.259,0,0,1-2.592-.014.336.336,0,0,0-.444,0,2.21,2.21,0,0,1-2.585,0,.336.336,0,0,0-.443,0,2.211,2.211,0,0,1-2.585.006.336.336,0,0,0-.443-.01,2.21,2.21,0,0,1-2.615-.008.314.314,0,0,0-.414.008,2.266,2.266,0,0,1-2.623.005.422.422,0,0,0-.37-.018,2.291,2.291,0,0,1-2.687,0c-.075-.048-.225-.084-.281-.043a2.423,2.423,0,0,1-2.126.375v9.134h22.667Zm-25.706,18.23h28.736V642.4H920.838Zm-2.3,3.027h33.344v-.964c0-.512,0-.513-.5-.513H924.663q-2.885,0-5.771,0c-.155,0-.362-.066-.359.218C918.538,652.09,918.534,652.5,918.534,652.938Zm2.305-21.2v9.079h1.439v-9.079Zm28.724,9.092v-9.092h-1.442v9.092Zm-22.685-13.565c0,.789-.02,1.558.008,2.326a.743.743,0,0,0,1.477,0c.025-.768.008-1.538.008-2.324Zm12.127,0c0,.8-.021,1.568.009,2.336a.72.72,0,0,0,.745.652.713.713,0,0,0,.726-.631c.029-.779.009-1.561.009-2.357Zm13.622.007h-1.5c0,.781-.017,1.54.007,2.3a.745.745,0,0,0,1.487-.023C952.642,628.8,952.628,628.053,952.628,627.273Zm-34.848-.009c0,.764-.007,1.488,0,2.211a.75.75,0,1,0,1.5.022c.017-.482,0-.966,0-1.449,0-.26,0-.52,0-.784Zm12.129,0c0,.787-.012,1.535,0,2.281a.731.731,0,0,0,.729.711.745.745,0,0,0,.763-.719c.023-.409.008-.821.009-1.231,0-.345,0-.691,0-1.042Zm13.629.007h-1.5c0,.755-.008,1.489,0,2.222a.748.748,0,1,0,1.5.023C943.551,628.781,943.538,628.046,943.538,627.271Zm-21.238,0h-1.478c0,.783-.015,1.543.006,2.3a.715.715,0,0,0,.719.681.705.705,0,0,0,.744-.651C922.322,628.835,922.3,628.063,922.3,627.273Zm3.039,0h-1.5c0,.595,0,1.163,0,1.73,0,.181-.008.364.01.544a.742.742,0,0,0,.74.7.729.729,0,0,0,.743-.735C925.35,628.783,925.339,628.046,925.339,627.276Zm7.616-.008c0,.8-.02,1.586.009,2.367a.7.7,0,0,0,.735.62.726.726,0,0,0,.721-.641,6.938,6.938,0,0,0,.021-.833c0-.5,0-1,0-1.513Zm3.028,0c0,.793-.022,1.565.009,2.335a.7.7,0,0,0,.745.649.729.729,0,0,0,.723-.718c.018-.471.006-.944.007-1.415,0-.284,0-.569,0-.851Zm9.1,0c-.006.118-.016.213-.016.307,0,.665-.012,1.331.011,2a.718.718,0,0,0,.718.682.706.706,0,0,0,.745-.65c.032-.77.009-1.542.009-2.335Zm3.023,0c0,.792-.022,1.564.009,2.333a.7.7,0,0,0,.744.652.73.73,0,0,0,.725-.716c.019-.423.006-.847.007-1.27q0-.5,0-1Z" transform="translate(0 0)"/>
      <path id="Path_3578" data-name="Path 3578" d="M1528.642,1118.322c-.145,0-.29.01-.434,0a.757.757,0,0,1-.038-1.508,5.623,5.623,0,0,1,.94,0,.754.754,0,0,1,.673.77.763.763,0,0,1-.707.739C1528.932,1118.332,1528.787,1118.322,1528.642,1118.322Z" transform="translate(-571.079 -463.835)"/>
      <path id="Path_3579" data-name="Path 3579" d="M1035.975,645.183H1002.12c.271-.551.521-1.067.778-1.581.94-1.881,1.887-3.759,2.82-5.644a.5.5,0,0,1,.526-.323q12.812.011,25.624,0c.217,0,.375.02.492.256,1.158,2.339,2.33,4.671,3.5,7.005C1035.894,644.975,1035.921,645.054,1035.975,645.183Z" transform="translate(-83.85 -19.472)" fill="#15cd97"/>
      <path id="Path_3580" data-name="Path 3580" d="M1005.735,1097.6c0-.439,0-.848,0-1.258,0-.284.2-.217.359-.218q2.885,0,5.771,0h26.713c.5,0,.5,0,.5.513v.964Z" transform="translate(-87.201 -444.66)" fill="#15cd97"/>
      <path id="Path_3581" data-name="Path 3581" d="M1037.5,824.638h1.438v9.079H1037.5Z" transform="translate(-116.659 -192.895)" fill="#15cd97"/>
      <path id="Path_3582" data-name="Path 3582" d="M1414.656,833.73h-1.442v-9.092h1.442Z" transform="translate(-465.092 -192.895)" fill="#15cd97"/>
      <path id="Path_3583" data-name="Path 3583" d="M1120.577,763.033h1.493c0,.787.018,1.556-.008,2.324a.743.743,0,0,1-1.477,0C1120.557,764.591,1120.577,763.822,1120.577,763.033Z" transform="translate(-193.699 -135.764)" fill="#15cd97"/>
      <path id="Path_3584" data-name="Path 3584" d="M1287.583,762.988h1.489c0,.8.02,1.578-.009,2.357a.743.743,0,0,1-1.472-.021C1287.563,764.556,1287.583,763.785,1287.583,762.988Z" transform="translate(-348.578 -135.722)" fill="#15cd97"/>
      <path id="Path_3585" data-name="Path 3585" d="M1456.044,763.089c0,.78.013,1.527-.005,2.274a.745.745,0,0,1-1.487.023c-.024-.757-.007-1.515-.007-2.3Z" transform="translate(-503.416 -135.816)" fill="#15cd97"/>
      <path id="Path_3586" data-name="Path 3586" d="M995.335,762.967h1.507c0,.265,0,.524,0,.784,0,.483.012.966-.005,1.449a.75.75,0,1,1-1.5-.022C995.328,764.455,995.335,763.731,995.335,762.967Z" transform="translate(-77.555 -135.702)" fill="#15cd97"/>
      <path id="Path_3587" data-name="Path 3587" d="M1162.343,762.953h1.506c0,.351,0,.7,0,1.042,0,.41.013.822-.009,1.231a.745.745,0,0,1-.763.719.731.731,0,0,1-.729-.711C1162.331,764.488,1162.343,763.74,1162.343,762.953Z" transform="translate(-232.434 -135.69)" fill="#15cd97"/>
      <path id="Path_3588" data-name="Path 3588" d="M1330.839,763.055c0,.775.014,1.511-.005,2.245a.748.748,0,1,1-1.5-.023c-.011-.733,0-1.467,0-2.222Z" transform="translate(-387.301 -135.784)" fill="#15cd97"/>
      <path id="Path_3589" data-name="Path 3589" d="M1038.668,763.079c0,.791.022,1.563-.009,2.332a.706.706,0,0,1-.745.651.715.715,0,0,1-.719-.681c-.021-.759-.006-1.519-.006-2.3Z" transform="translate(-116.368 -135.806)" fill="#15cd97"/>
      <path id="Path_3590" data-name="Path 3590" d="M1080.324,763.131c0,.769.011,1.507,0,2.244a.729.729,0,0,1-.743.735.742.742,0,0,1-.74-.7c-.018-.18-.009-.363-.01-.544,0-.568,0-1.136,0-1.73Z" transform="translate(-154.985 -135.855)" fill="#15cd97"/>
      <path id="Path_3591" data-name="Path 3591" d="M1204.256,763.027h1.486c0,.509,0,1.012,0,1.513a6.934,6.934,0,0,1-.021.833.726.726,0,0,1-.721.641.7.7,0,0,1-.734-.62C1204.235,764.612,1204.256,763.829,1204.256,763.027Z" transform="translate(-271.301 -135.758)" fill="#15cd97"/>
      <path id="Path_3592" data-name="Path 3592" d="M1245.947,763.058h1.485c0,.282,0,.566,0,.851,0,.472.012.944-.007,1.415a.729.729,0,0,1-.723.718.7.7,0,0,1-.745-.649C1245.925,764.623,1245.947,763.851,1245.947,763.058Z" transform="translate(-309.964 -135.787)" fill="#15cd97"/>
      <path id="Path_3593" data-name="Path 3593" d="M1371.163,763.058h1.467c0,.793.022,1.565-.009,2.334a.706.706,0,0,1-.745.65.718.718,0,0,1-.718-.682c-.023-.665-.01-1.331-.011-2C1371.147,763.271,1371.157,763.176,1371.163,763.058Z" transform="translate(-426.077 -135.787)" fill="#15cd97"/>
      <path id="Path_3594" data-name="Path 3594" d="M1412.943,763.05h1.485q0,.5,0,1c0,.423.012.848-.007,1.27a.729.729,0,0,1-.725.716.7.7,0,0,1-.744-.651C1412.921,764.614,1412.943,763.842,1412.943,763.05Z" transform="translate(-464.834 -135.779)" fill="#15cd97"/>
      <path id="Path_3595" data-name="Path 3595" d="M1177.089,987.572q-1.813,0-3.627,0c-.642,0-.922-.282-.923-.932q0-2.1,0-4.208c0-.644.282-.917.937-.917q3.609,0,7.219,0c.694,0,.96.268.961.967q0,2.067,0,4.135c0,.688-.275.955-.974.955Zm-3.006-1.551h6.021v-2.948h-6.021Z" transform="translate(-241.892 -338.38)"/>
      <path id="Path_3596" data-name="Path 3596" d="M1193.832,1005.936v-2.948h6.021v2.948Z" transform="translate(-261.64 -358.295)" fill="#15cd97"/>
    </g>
  </g>
</svg>
