<svg xmlns="http://www.w3.org/2000/svg" width="57" height="56" viewBox="0 0 57 56">
  <g id="Group_6073" data-name="Group 6073" transform="translate(-1430 -2344)">
    <g id="Rectangle_85" data-name="Rectangle 85" transform="translate(1430 2344)" fill="#f6f4f9" stroke="#fff" stroke-width="1">
      <rect width="57" height="56" rx="20" stroke="none"/>
      <rect x="0.5" y="0.5" width="56" height="55" rx="19.5" fill="none"/>
    </g>
    <g id="Group_6074" data-name="Group 6074" transform="translate(175 289.999)">
      <g id="Group_6084" data-name="Group 6084" transform="translate(1266 2062)">
        <g id="Group_6074-2" data-name="Group 6074" transform="translate(0 0)">
          <path id="Path_3597" data-name="Path 3597" d="M338.274,1471.829a15.842,15.842,0,0,1,8.194,2.275,17.382,17.382,0,0,1,7.5,8.733,16.016,16.016,0,0,1,1.042,7.309,16.781,16.781,0,0,1-3.172,8.661,21.8,21.8,0,0,1-1.678,1.99q-2.81,3.035-5.653,6.04-2.448,2.6-4.911,5.185a2.02,2.02,0,0,1-3.117-.007c-3.7-3.922-7.421-7.831-11.089-11.786a17,17,0,0,1-4.095-14.385,17.039,17.039,0,0,1,12.467-13.452A17.686,17.686,0,0,1,338.274,1471.829Zm-.356,1.365c-.439.039-1.223.081-2,.183a15.019,15.019,0,0,0-7.3,3.009,15.671,15.671,0,0,0-4.8,19.027,17.161,17.161,0,0,0,3.341,4.747c3.43,3.6,6.826,7.222,10.238,10.835.469.5.8.491,1.28-.013q3.838-4.055,7.672-8.114c.777-.825,1.49-1.712,2.3-2.5a17.272,17.272,0,0,0,2.82-3.495,15.656,15.656,0,0,0,2.154-6.735,14.889,14.889,0,0,0-.669-6.067,15.755,15.755,0,0,0-5.8-7.875A15.35,15.35,0,0,0,337.918,1473.194Z" transform="translate(-321.014 -1471.829)"/>
          <path id="Path_3598" data-name="Path 3598" d="M360.788,1495.9a15.35,15.35,0,0,1,9.241,3,15.755,15.755,0,0,1,5.8,7.875,14.889,14.889,0,0,1,.669,6.067,15.656,15.656,0,0,1-2.154,6.735,17.274,17.274,0,0,1-2.82,3.495c-.807.793-1.521,1.68-2.3,2.5q-3.828,4.064-7.672,8.114c-.477.5-.811.51-1.28.013-3.411-3.613-6.808-7.24-10.238-10.835a17.16,17.16,0,0,1-3.341-4.746,15.671,15.671,0,0,1,4.8-19.027,15.019,15.019,0,0,1,7.3-3.009C359.566,1495.983,360.349,1495.941,360.788,1495.9ZM347.3,1511.573a13.615,13.615,0,1,0,13.7-13.616A13.616,13.616,0,0,0,347.3,1511.573Z" transform="translate(-343.884 -1494.537)" fill="#15cd97"/>
          <path id="Path_3599" data-name="Path 3599" d="M381.2,1545.766a13.615,13.615,0,1,1,13.614,13.615A13.611,13.611,0,0,1,381.2,1545.766Zm1.37-.021a12.245,12.245,0,1,0,12.206-12.224A12.26,12.26,0,0,0,382.57,1545.745Z" transform="translate(-377.787 -1528.729)"/>
          <path id="Path_3600" data-name="Path 3600" d="M492.984,1606.176a2.2,2.2,0,0,1,.511-1.324,2,2,0,0,1,1.543-.716q1.3-.005,2.608,0A2.06,2.06,0,0,1,499.8,1606c.007.046.015.092.029.177.487,0,.976-.01,1.464,0a5.292,5.292,0,0,1,1.123.089,2.006,2.006,0,0,1,1.477,2.037,1.338,1.338,0,0,1-1.091,1.247c-.274.045-.305.166-.314.385q-.108,2.606-.227,5.211-.126,2.86-.255,5.72a3.97,3.97,0,0,1-.1.814,2.018,2.018,0,0,1-1.986,1.515q-3.5,0-7,0a2.008,2.008,0,0,1-2.085-1.9c-.072-.847-.09-1.7-.127-2.547q-.191-4.3-.38-8.609a2.193,2.193,0,0,0-.033-.395.248.248,0,0,0-.143-.161,1.478,1.478,0,0,1-1.005-2.311,1.971,1.971,0,0,1,1.789-1.1c.576-.012,1.153,0,1.729,0Zm7.886,9.177h.009c.079-1.812.152-3.625.242-5.437.013-.264-.052-.336-.318-.335q-4.394.014-8.788,0c-.267,0-.33.072-.317.335.109,2.312.2,4.625.3,6.938.061,1.4.124,2.794.2,4.19.031.573.273.783.85.784,2.136,0,4.271-.021,6.406.009,1.1.015,1.157-.321,1.19-1.161C500.718,1618.9,500.8,1617.128,500.87,1615.353Zm-10.567-7.158h12.205a.655.655,0,0,0-.7-.646c-.718-.006-1.435,0-2.153,0h-8.583A.679.679,0,0,0,490.3,1608.195Zm4.085-2.038h4.021a.634.634,0,0,0-.629-.646q-1.372-.017-2.744,0C494.673,1605.514,494.451,1605.745,494.389,1606.156Z" transform="translate(-479.381 -1596.63)"/>
          <path id="Path_3601" data-name="Path 3601" d="M513.61,1664.936a.679.679,0,0,1,.77-.648h8.583c.718,0,1.435,0,2.153,0a.655.655,0,0,1,.7.646Z" transform="translate(-502.688 -1653.371)" fill="#15cd97"/>
          <path id="Path_3602" data-name="Path 3602" d="M585.648,1628.919c.062-.411.284-.642.648-.646q1.372-.015,2.744,0a.634.634,0,0,1,.629.646Z" transform="translate(-570.64 -1619.393)" fill="#15cd97"/>
        </g>
        <g id="Group_6083" data-name="Group 6083" transform="translate(13.424 15.116)">
          <g id="Group_6082" data-name="Group 6082">
            <g id="Group_6081" data-name="Group 6081">
              <g id="Group_6075" data-name="Group 6075" transform="translate(0.001 2.906)">
                <path id="Path_3603" data-name="Path 3603" d="M559.782,1792.932h-1.167a.877.877,0,0,1-.755-1.324l1.118-1.891a.209.209,0,0,1,.36.213l-1.119,1.891a.459.459,0,0,0,.4.693h1.167a.209.209,0,0,1,0,.418Z" transform="translate(-557.737 -1789.615)" stroke="#000" stroke-width="0.3"/>
              </g>
              <g id="Group_6076" data-name="Group 6076" transform="translate(2.228)">
                <path id="Path_3604" data-name="Path 3604" d="M600.253,1741.158a.209.209,0,0,1-.179-.1l-1.237-2.042a.459.459,0,0,0-.766-.03l-.69.961a.209.209,0,0,1-.339-.244l.69-.961a.877.877,0,0,1,1.462.057l1.237,2.042a.209.209,0,0,1-.178.317Z" transform="translate(-597.002 -1738.376)" stroke="#000" stroke-width="0.3"/>
              </g>
              <g id="Group_6077" data-name="Group 6077" transform="translate(3.408 3.757)">
                <path id="Path_3605" data-name="Path 3605" d="M620.716,1807.159h-2.694a.209.209,0,0,1,0-.418h2.694a.459.459,0,0,0,.411-.665l-.575-1.149a.209.209,0,0,1,.374-.187l.575,1.149a.877.877,0,0,1-.784,1.27Z" transform="translate(-617.813 -1804.625)" stroke="#000" stroke-width="0.3"/>
              </g>
              <g id="Group_6078" data-name="Group 6078" transform="translate(3.408 4.939)">
                <path id="Path_3606" data-name="Path 3606" d="M618.914,1827.751a.209.209,0,0,1-.151-.065l-.892-.934a.209.209,0,0,1,0-.289l.892-.934a.209.209,0,0,1,.3.288l-.755.79.755.79a.209.209,0,0,1-.151.353Z" transform="translate(-617.813 -1825.465)" stroke="#000" stroke-width="0.3"/>
              </g>
              <g id="Group_6079" data-name="Group 6079" transform="translate(4.015 1.132)">
                <path id="Path_3607" data-name="Path 3607" d="M629.976,1760.06a.212.212,0,0,1-.038,0l-1.243-.23a.209.209,0,1,1,.076-.411l1.034.191.184-1.092a.209.209,0,1,1,.412.069l-.219,1.3a.209.209,0,0,1-.206.174Z" transform="translate(-628.524 -1758.341)" stroke="#000" stroke-width="0.3"/>
              </g>
              <g id="Group_6080" data-name="Group 6080" transform="translate(0 2.772)">
                <path id="Path_3608" data-name="Path 3608" d="M559.392,1788.971a.209.209,0,0,1-.206-.174L559,1787.7l-1.034.191a.209.209,0,0,1-.076-.411l1.243-.229a.212.212,0,0,1,.158.034.209.209,0,0,1,.086.136l.219,1.3a.209.209,0,0,1-.171.241Z" transform="translate(-557.721 -1787.252)" stroke="#000" stroke-width="0.3"/>
              </g>
            </g>
          </g>
        </g>
      </g>
    </g>
  </g>
</svg>
