<svg xmlns="http://www.w3.org/2000/svg" width="57" height="56" viewBox="0 0 57 56">
  <g id="Group_6070" data-name="Group 6070" transform="translate(-1430 -2344)">
    <g id="Rectangle_85" data-name="Rectangle 85" transform="translate(1430 2344)" fill="#f6f4f9" stroke="#fff" stroke-width="1">
      <rect width="57" height="56" rx="20" stroke="none"/>
      <rect x="0.5" y="0.5" width="56" height="55" rx="19.5" fill="none"/>
    </g>
    <g id="Group_6069" data-name="Group 6069" transform="translate(-16163 18614.102)">
      <g id="Group_6069-2" data-name="Group 6069" transform="translate(17600 -16264.324)">
        <g id="Group_6069-3" data-name="Group 6069" transform="translate(0 0)">
          <path id="Path_3552" data-name="Path 3552" d="M-541.039,441.648c0-.251,0-.461,0-.672a.693.693,0,0,0-.71-.726.707.707,0,0,0-.677.761,2.131,2.131,0,0,0,1.844,2.017,2.109,2.109,0,0,0,2.263-1.519,2.663,2.663,0,0,0,.085-.629c.006-2.5,0-5,.006-7.495,0-.167,0-.291-.223-.337a8.256,8.256,0,0,1-5.633-4,8.387,8.387,0,0,1-1.01-5.937,10.113,10.113,0,0,1,4.449-6.816c.732-.5,1.453-1.02,2.185-1.52a.483.483,0,0,0,.236-.454q-.01-5.579,0-11.159a2.155,2.155,0,0,1,1.813-2.195,4.3,4.3,0,0,1,1.922.162,6.1,6.1,0,0,1,4.479,4.487,6.181,6.181,0,0,1-2.521,6.724q-3.72,2.618-7.447,5.224a8.657,8.657,0,0,0-3.792,6.335,6.976,6.976,0,0,0,4.423,7.427,5.751,5.751,0,0,0,6-.746,5.374,5.374,0,0,0,2.11-4.717,4.233,4.233,0,0,0-3.475-3.8,2.9,2.9,0,0,0-3.2,1.484,2.379,2.379,0,0,0-.273,1.53,1.4,1.4,0,0,0,1.365,1.126,1.391,1.391,0,0,0,1.366-1.155c.041-.227.134-.262.326-.255.286.011.574.015.86,0,.216-.012.269.067.252.273a2.846,2.846,0,0,1-2.125,2.464,2.836,2.836,0,0,1-3.443-3.336,4.13,4.13,0,0,1,2.846-3.383,4.8,4.8,0,0,1,3.939.433,5.655,5.655,0,0,1,2.934,5.883,7.05,7.05,0,0,1-5.27,5.9c-.533.134-1.09.174-1.681.264v.291c0,2.452,0,4.9,0,7.356a3.5,3.5,0,0,1-2.54,3.388,3.519,3.519,0,0,1-4.468-3.594,2.14,2.14,0,0,1,1.888-1.887,2.091,2.091,0,0,1,2.221,1.5,5.833,5.833,0,0,1,.093,1.126.246.246,0,0,1-.167.175C-540.193,441.656-540.591,441.648-541.039,441.648Zm4.217-28.058c.113-.066.169-.094.221-.13,1.1-.769,2.206-1.521,3.287-2.313a4.7,4.7,0,0,0,2.018-4.731,4.824,4.824,0,0,0-4.562-4.067c-.652-.019-.964.278-.964.925q0,4.994,0,9.987Z" transform="translate(545.248 -400.917)"/>
          <path id="Path_3553" data-name="Path 3553" d="M21.527,636.043v-2.166l-5.583-.559c0,.153,0,.262,0,.37,0,1.249.005,2.5,0,3.747a2.806,2.806,0,0,1-2.9,2.826,2.839,2.839,0,0,1-2.71-2.536,2.772,2.772,0,0,1,2.195-3,9.784,9.784,0,0,1,1.684-.08c.248,0,.329-.061.328-.323-.011-2.137-.006-4.274-.006-6.411v-.355c.335.026.636.043.936.073q2.842.288,5.684.581c.515.052,1.03.1,1.546.146.2.016.257.1.256.3-.006,3.414.008,6.828-.013,10.241A2.8,2.8,0,0,1,18.4,641.04a2.666,2.666,0,0,1-.987-2.795,2.779,2.779,0,0,1,2.7-2.2C20.577,636.039,21.038,636.043,21.527,636.043Zm-5.538-6.932a.485.485,0,0,0-.039.112c0,.831,0,1.663-.007,2.494,0,.2.123.19.255.2q2.508.251,5.016.5c.1.01.2,0,.311,0v-2.76Zm4.716,8.353,0,.027c-.194,0-.388-.01-.582,0a1.367,1.367,0,0,0-1.338,1.412,1.381,1.381,0,0,0,1.247,1.305,1.331,1.331,0,0,0,1.415-1.026,4.478,4.478,0,0,0,.074-.876c.007-.256.08-.615-.054-.742C21.316,637.422,20.967,637.488,20.7,637.463Zm-6.182-.573-.022,0c0-.212.012-.426-.007-.637-.006-.064-.1-.172-.149-.171a10.166,10.166,0,0,0-1.567.081,1.3,1.3,0,0,0-1,1.406,1.408,1.408,0,0,0,1.308,1.25,1.359,1.359,0,0,0,1.359-1.076A7.745,7.745,0,0,0,14.522,636.89Z" transform="translate(20.521 -614.971)"/>
          <path id="Path_3554" data-name="Path 3554" d="M-254.836,860.813l-6.955-1.392c-.007.14-.016.247-.016.354,0,1.7.008,3.4,0,5.105a2.8,2.8,0,0,1-2.973,2.8,2.837,2.837,0,0,1-2.634-2.554,2.772,2.772,0,0,1,2.189-2.98,11.6,11.6,0,0,1,1.628-.089c.117-.005.234,0,.388,0v-8.572c.656.128,1.27.246,1.883.368q2.336.465,4.672.934c.552.111,1.1.23,1.656.336.141.027.21.079.21.232q0,2.65,0,5.3A.827.827,0,0,1-254.836,860.813Zm-1.394-1.728c.007-.1.017-.181.017-.262,0-.74-.007-1.48.005-2.219,0-.221-.069-.3-.287-.338-1.4-.269-2.789-.556-4.183-.836-.365-.073-.731-.141-1.128-.217,0,.909-.006,1.767.011,2.625,0,.064.154.162.25.182,1.1.229,2.207.446,3.312.666ZM-263.2,863.5c-.561,0-1.043-.035-1.518.008a1.364,1.364,0,0,0-1.134,1.913,1.418,1.418,0,0,0,1.3.823,1.314,1.314,0,0,0,1.217-1C-263.241,864.683-263.243,864.11-263.2,863.5Z" transform="translate(282.853 -828.357)"/>
          <path id="Path_3555" data-name="Path 3555" d="M-237.91,426.688h1.411c.006.1.015.188.015.277q0,5.452,0,10.9a2.81,2.81,0,0,1-2.955,2.852,2.842,2.842,0,0,1-2.652-2.532,2.763,2.763,0,0,1,2.188-3,13.734,13.734,0,0,1,1.794-.087c.055,0,.109-.007.2-.014Zm.027,9.857a11.558,11.558,0,0,0-1.534.012,1.329,1.329,0,0,0-1.242,1.361,1.389,1.389,0,0,0,1.229,1.353,1.308,1.308,0,0,0,1.41-.958A14.632,14.632,0,0,0-237.883,436.545Z" transform="translate(258.933 -425.257)"/>
          <path id="Path_3556" data-name="Path 3556" d="M-61.351,406.662c-.477,0-.911,0-1.344,0a2.822,2.822,0,0,1-2.838-2.42,2.827,2.827,0,0,1,1.927-3.071,2.81,2.81,0,0,1,3.658,2.519c.025.776.008,1.553.008,2.33q0,4.356,0,8.711v.327h-1.41Zm-.028-1.408a13.013,13.013,0,0,0-.01-1.488,1.352,1.352,0,0,0-1.36-1.285,1.393,1.393,0,0,0-1.361,1.229,1.318,1.318,0,0,0,.959,1.416A14.756,14.756,0,0,0-61.379,405.255Z" transform="translate(92.2 -401.022)"/>
          <path id="Path_3557" data-name="Path 3557" d="M-169.144,893.2l-.358-1.366c.5-.159.989-.3,1.468-.464a20.943,20.943,0,0,0,8.977-5.907,19.709,19.709,0,0,0,4.11-7c.05-.151.129-.214.287-.159.305.106.61.216.92.306.182.053.2.131.142.3a21.142,21.142,0,0,1-3.757,6.742,22.546,22.546,0,0,1-10.037,7C-167.955,892.857-168.533,893.012-169.144,893.2Z" transform="translate(190.364 -851.779)"/>
          <path id="Path_3558" data-name="Path 3558" d="M-78.18,916.477c-.055.153-.092.267-.136.378a25.372,25.372,0,0,1-7.75,10.593,25.209,25.209,0,0,1-5.255,3.273c-.317.148-.318.148-.461-.173q-.13-.291-.259-.582c-.175-.4-.162-.375.213-.583,1.1-.607,2.232-1.164,3.267-1.866A23.558,23.558,0,0,0-79.6,916.213c.085-.221.183-.287.406-.191.28.12.571.212.853.326A.674.674,0,0,1-78.18,916.477Z" transform="translate(117.306 -887.382)"/>
          <path id="Path_3559" data-name="Path 3559" d="M-121.769,584.849c-.383-.151-.712-.3-1.053-.409-.223-.073-.255-.167-.174-.383a12.034,12.034,0,0,0,.776-4.921,12.454,12.454,0,0,0-4.443-9.094c-.469-.407-.473-.256-.083-.772.156-.206.321-.405.483-.607a.468.468,0,0,1,.085-.053,13.741,13.741,0,0,1,4.6,6.419A14.021,14.021,0,0,1-121.769,584.849Z" transform="translate(150.246 -559.3)"/>
          <path id="Path_3560" data-name="Path 3560" d="M-137.611,681.881c-.388-.159-.763-.311-1.136-.467-.16-.067-.109-.177-.063-.3a8.319,8.319,0,0,0,.554-3.2,8.443,8.443,0,0,0-1.165-4.084c-.046-.078-.088-.158-.146-.262l1.148-.737A9.654,9.654,0,0,1-137.611,681.881Z" transform="translate(162.091 -657.735)"/>
          <path id="Path_3561" data-name="Path 3561" d="M61.622,477.458a2.377,2.377,0,0,1-.163-.254c-.367-.765-.7-1.545-1.1-2.294a21.728,21.728,0,0,0-2.772-4.033c-.164-.19-.149-.294.038-.439.234-.18.452-.381.669-.582.122-.112.205-.109.316.022a25.413,25.413,0,0,1,4.194,6.874c.026.062.016.2-.017.216C62.417,477.136,62.04,477.286,61.622,477.458Z" transform="translate(-24.008 -465.953)"/>
          <path id="Path_3562" data-name="Path 3562" d="M45.613,547.879c.317-.227.635-.465.965-.682a.247.247,0,0,1,.237.045c.527.856,1.042,1.718,1.558,2.58a.162.162,0,0,1-.079.266c-.316.152-.624.32-.943.464a.238.238,0,0,1-.22-.069C46.624,549.628,46.128,548.766,45.613,547.879Z" transform="translate(-12.807 -539.062)"/>
          <path id="Path_3563" data-name="Path 3563" d="M-393.474,437.959v-.328q0-4.994,0-9.987c0-.647.312-.944.964-.925a4.824,4.824,0,0,1,4.562,4.067,4.7,4.7,0,0,1-2.018,4.731c-1.08.792-2.19,1.544-3.287,2.313C-393.3,437.865-393.361,437.893-393.474,437.959Z" transform="translate(401.901 -425.286)" fill="#15cd97"/>
          <path id="Path_3564" data-name="Path 3564" d="M111.539,655.595l5.536.555v2.76c-.114,0-.213.008-.311,0q-2.508-.251-5.016-.5c-.132-.013-.257-.007-.255-.2.007-.831,0-1.663.007-2.494A.486.486,0,0,1,111.539,655.595Z" transform="translate(-75.029 -641.455)" fill="#15cd97"/>
          <path id="Path_3565" data-name="Path 3565" d="M164.564,806.033c.262.025.611-.041.761.1.133.127.06.486.054.742a4.479,4.479,0,0,1-.074.876,1.331,1.331,0,0,1-1.415,1.025,1.381,1.381,0,0,1-1.247-1.305,1.367,1.367,0,0,1,1.338-1.412c.193-.011.388,0,.582,0Z" transform="translate(-123.339 -783.54)" fill="#15cd97"/>
          <path id="Path_3566" data-name="Path 3566" d="M39.148,781.949a7.748,7.748,0,0,1-.074.852,1.359,1.359,0,0,1-1.359,1.076,1.408,1.408,0,0,1-1.308-1.25,1.3,1.3,0,0,1,1-1.406,10.166,10.166,0,0,1,1.567-.081c.051,0,.143.107.149.171.019.211.007.424.007.637Z" transform="translate(-4.105 -760.029)" fill="#15cd97"/>
          <path id="Path_3567" data-name="Path 3567" d="M-160.606,888.51l-2-.4c-1.1-.22-2.209-.437-3.312-.666-.1-.02-.249-.118-.25-.182-.017-.858-.011-1.716-.011-2.625.4.076.763.144,1.128.217,1.394.28,2.787.567,4.183.836.218.042.291.117.287.338-.012.74,0,1.479-.005,2.219C-160.589,888.329-160.6,888.409-160.606,888.51Z" transform="translate(187.229 -857.782)" fill="#15cd97"/>
          <path id="Path_3568" data-name="Path 3568" d="M-238.375,1033.669c-.042.609-.04,1.182-.131,1.739a1.314,1.314,0,0,1-1.217,1,1.419,1.419,0,0,1-1.3-.823,1.364,1.364,0,0,1,1.134-1.913C-239.418,1033.634-238.936,1033.669-238.375,1033.669Z" transform="translate(258.026 -998.525)" fill="#15cd97"/>
          <path id="Path_3569" data-name="Path 3569" d="M-213.361,603.863a14.635,14.635,0,0,1-.137,1.768,1.308,1.308,0,0,1-1.41.958,1.389,1.389,0,0,1-1.229-1.353,1.329,1.329,0,0,1,1.242-1.361A11.553,11.553,0,0,1-213.361,603.863Z" transform="translate(234.412 -592.575)" fill="#15cd97"/>
          <path id="Path_3570" data-name="Path 3570" d="M-36.781,429.948a14.757,14.757,0,0,1-1.773-.127,1.318,1.318,0,0,1-.959-1.416,1.393,1.393,0,0,1,1.361-1.229,1.352,1.352,0,0,1,1.36,1.285A13.013,13.013,0,0,1-36.781,429.948Z" transform="translate(67.602 -425.716)" fill="#15cd97"/>
        </g>
      </g>
    </g>
  </g>
</svg>
