<svg xmlns="http://www.w3.org/2000/svg" width="26.143" height="27.334" viewBox="0 0 26.143 27.334">
  <g id="Group_6048" data-name="Group 6048" transform="translate(-1570.808 -614)">
    <path id="Path_3551" data-name="Path 3551" d="M264.432,303.3a1.939,1.939,0,0,0-.8.631,1.4,1.4,0,0,0,.257,1.94,1.34,1.34,0,0,0,.983.406,1.587,1.587,0,0,0,1.523-1.518,1.551,1.551,0,0,0-1.961-1.459Zm.721,1.138a.5.5,0,0,1,.027.62.557.557,0,0,1-.614.005.43.43,0,0,1,.588-.625Z" transform="translate(1313.926 333.219)" fill="#fefefe"/>
    <path id="Path_3549" data-name="Path 3549" d="M502.8-256.659a.572.572,0,0,0-.1.876l.155.155h8.464l.155-.155a.522.522,0,0,0-.027-.785l-.182-.182H507.1C503.321-256.745,502.93-256.74,502.8-256.659Z" transform="translate(1081.414 877.59)" fill="#fefefe"/>
    <path id="Path_3550" data-name="Path 3550" d="M502.8-133.71a.572.572,0,0,0-.1.876l.155.155h3.869l.187-.187c.171-.171.187-.214.16-.411a.623.623,0,0,0-.166-.358l-.139-.139-1.913-.011C503.139-133.8,502.925-133.79,502.8-133.71Z" transform="translate(1081.414 758.061)" fill="#fefefe"/>
    <path id="Path_3548" data-name="Path 3548" d="M33.43-501.888a2.856,2.856,0,0,0-1.213.764,3.17,3.17,0,0,0-.817,1.571c-.069.449-.075,21.974-.005,22.39a3.037,3.037,0,0,0,1.983,2.357l.347.128H44.946l.347-.123a3.14,3.14,0,0,0,1.678-1.448c.353-.673.353-.668.353-4.451v-3.4l1.192-.962,1.186-.962.78-.005a6.54,6.54,0,0,0,3.281-.625,5.663,5.663,0,0,0,1.656-1.218,7.112,7.112,0,0,0,1.838-6.84,6.952,6.952,0,0,0-3.837-4.574c-.914-.385-.951-.39-3.687-.422l-2.474-.027-.118-.321a3.119,3.119,0,0,0-1.416-1.625c-.641-.337-.358-.326-6.418-.326l-5.531.005Zm11.842,1.17a1.845,1.845,0,0,1,.748.77,1.139,1.139,0,0,1,.075.208,2.3,2.3,0,0,1-.5.027,5.848,5.848,0,0,0-3.115.967l-.225.155H32.479l.021-.47a1.807,1.807,0,0,1,.283-1.085,1.521,1.521,0,0,1,.791-.636c.246-.1.481-.1,5.841-.091l5.584.011Zm6.995,2.228a5.263,5.263,0,0,1,3.917,4.013,4.578,4.578,0,0,1,.139,1.576,4.632,4.632,0,0,1-.139,1.582,5.455,5.455,0,0,1-2.88,3.676,4.6,4.6,0,0,1-2.506.428,4.82,4.82,0,0,0-1.55.117c-.075.048-1.047.828-2.164,1.732l-2.031,1.641-.016-1.71-.011-1.7-.128-.139a1.246,1.246,0,0,0-.518-.251,4.981,4.981,0,0,1-2.25-1.432,5.779,5.779,0,0,1-1.587-4.558,5.345,5.345,0,0,1,4.109-4.964,22.024,22.024,0,0,1,3.794-.1A22.241,22.241,0,0,1,52.267-498.489ZM40.7-497.03a7.64,7.64,0,0,0-1.234,2.928,8.443,8.443,0,0,0,.027,2.324,7.633,7.633,0,0,0,1.683,3.383,6.912,6.912,0,0,0,2.367,1.763l.363.144v4.152l.182.182a.466.466,0,0,0,.39.182c.187,0,.288-.064.94-.588.4-.326.743-.588.759-.588a6.181,6.181,0,0,1,.027.828v.828H32.522v-15.978h8.492Zm5.478,18.324v1.635l-.187.369a1.6,1.6,0,0,1-.957.834c-.2.054-1.315.069-5.75.069h-5.5l-.358-.176a1.431,1.431,0,0,1-.8-.866,5.3,5.3,0,0,1-.134-1.865c-.011-.866-.005-1.592.011-1.619s3.1-.037,6.851-.032l6.824.016v1.635Z" transform="translate(1539.463 1116.012)" fill="#fefefe"/>
  </g>
</svg>
