<svg xmlns="http://www.w3.org/2000/svg" width="22.736" height="22.736" viewBox="0 0 22.736 22.736">
  <path id="Icon_awesome-phone-alt" data-name="Icon awesome-phone-alt" d="M22.088,16.067l-4.974-2.132a1.066,1.066,0,0,0-1.243.306l-2.2,2.691A16.46,16.46,0,0,1,5.8,9.064l2.691-2.2A1.063,1.063,0,0,0,8.8,5.618L6.666.645A1.073,1.073,0,0,0,5.444.027L.826,1.093A1.066,1.066,0,0,0,0,2.132,20.6,20.6,0,0,0,20.605,22.737a1.066,1.066,0,0,0,1.039-.826l1.066-4.618A1.079,1.079,0,0,0,22.088,16.067Z" fill="#23c886"/>
</svg>
