<svg xmlns="http://www.w3.org/2000/svg" width="20.714" height="47.185" viewBox="0 0 20.714 47.185">
  <g id="scroll-down-icon-png-27" transform="translate(-64 182.013)">
    <path id="Path_12" data-name="Path 12" d="M70.329-181.376a11.612,11.612,0,0,0-5.7,5.783c-.575,1.554-.633,2.186-.633,9.12,0,9.034.144,9.7,2.992,12.543a9.03,9.03,0,0,0,7.365,2.992,9.03,9.03,0,0,0,7.365-2.992c2.848-2.848,2.992-3.51,2.992-12.543,0-6.933-.058-7.566-.633-9.12a11.133,11.133,0,0,0-5.783-5.783A12.79,12.79,0,0,0,70.329-181.376Zm7.422,2.7a8.515,8.515,0,0,1,3.913,4.114c.547,1.237.6,1.812.6,8.084,0,7.509-.115,8.142-2.129,10.414a7.885,7.885,0,0,1-11.565,0c-2.014-2.273-2.129-2.906-2.129-10.414,0-6.444.029-6.818.662-8.2a7.709,7.709,0,0,1,7.279-4.747A6.46,6.46,0,0,1,77.752-178.672Z" fill="#014351"/>
    <path id="Path_13" data-name="Path 13" d="M96.2-159.52a17.543,17.543,0,0,0-.058,2.819l.086,2.417h2.014v-5.466l-.949-.086C96.688-159.893,96.314-159.778,96.2-159.52Z" transform="translate(-22.877 -15.786)" fill="#014351"/>
    <path id="Path_14" data-name="Path 14" d="M80.2-63.8a1.6,1.6,0,0,0-.2.921c0,1.064,4.718,5.783,5.754,5.783.547,0,1.438-.69,3.28-2.56,2.158-2.186,2.5-2.647,2.417-3.366-.058-.69-.23-.863-.921-.921-.69-.086-1.151.2-2.791,1.841l-1.985,1.956L83.8-62.072C82.417-63.453,81.64-64,81.122-64A1.6,1.6,0,0,0,80.2-63.8Z" transform="translate(-11.397 -84.061)" fill="#014351"/>
    <path id="Path_15" data-name="Path 15" d="M80.2-41.8a1.6,1.6,0,0,0-.2.921c0,1.064,4.718,5.783,5.754,5.783.547,0,1.438-.69,3.28-2.56,2.158-2.186,2.5-2.647,2.417-3.366-.058-.69-.23-.863-.921-.921-.69-.086-1.151.2-2.791,1.841l-1.985,1.956L83.8-40.072C82.417-41.453,81.64-42,81.122-42A1.6,1.6,0,0,0,80.2-41.8Z" transform="translate(-11.397 -99.732)" fill="#014351"/>
  </g>
</svg>
